<svg width="38" height="40" viewBox="0 0 38 40" fill="none" xmlns="http://www.w3.org/2000/svg">
<path d="M27.14 11.4766H16.6604C12.3197 11.4766 8.80078 14.9954 8.80078 19.3362V29.8157C8.80078 34.1565 12.3197 37.6754 16.6604 37.6754H27.14C31.4807 37.6754 34.9996 34.1565 34.9996 29.8157V19.3362C34.9996 14.9954 31.4807 11.4766 27.14 11.4766Z" stroke="white" stroke-width="3.49318"/>
<path fill-rule="evenodd" clip-rule="evenodd" d="M25.1911 8.85192C24.5199 8.25336 23.7249 7.81026 22.8629 7.5542C22.4227 7.42321 21.7835 7.34286 20.5189 7.42495C19.2177 7.51054 17.5532 7.74283 15.0818 8.08866C12.6121 8.43798 10.9476 8.67202 9.67437 8.94973C8.4343 9.2187 7.8422 9.4737 7.45621 9.71822C6.21659 10.5095 5.3038 11.7212 4.88523 13.1311C4.75423 13.5712 4.67389 14.2104 4.75598 15.475C4.84156 16.7762 5.07211 18.4407 5.41968 20.9121C5.72534 23.0884 5.94541 24.6393 6.18294 25.848V31.5593C6.18294 31.9715 6.2039 32.3802 6.24407 32.7837C5.40395 32.1196 4.68079 31.3197 4.1045 30.417C2.98145 28.6565 2.64086 26.2357 1.96144 21.3977C1.28027 16.5596 0.94143 14.1388 1.53527 12.1372C2.19361 9.92193 3.62854 8.01821 5.57688 6.77522C7.33744 5.65042 9.75821 5.30984 14.5963 4.63041C19.4343 3.94924 21.8551 3.61041 23.8584 4.20599C26.0735 4.86389 27.9771 6.29817 29.2204 8.24585C29.3462 8.44496 29.465 8.65281 29.5733 8.87113C29.3462 8.8589 29.1191 8.85366 28.8886 8.85366L25.1911 8.85192Z" fill="white"/>
<path d="M28.0142 20.1875H15.7881C14.8235 20.1875 14.0415 20.9695 14.0415 21.9341C14.0415 22.8987 14.8235 23.6807 15.7881 23.6807H28.0142C28.9788 23.6807 29.7608 22.8987 29.7608 21.9341C29.7608 20.9695 28.9788 20.1875 28.0142 20.1875Z" fill="white"/>
<path d="M22.7744 25.4375H15.7881C14.8235 25.4375 14.0415 26.2195 14.0415 27.1841C14.0415 28.1487 14.8235 28.9307 15.7881 28.9307H22.7744C23.7391 28.9307 24.521 28.1487 24.521 27.1841C24.521 26.2195 23.7391 25.4375 22.7744 25.4375Z" fill="white"/>
</svg>
