<svg width="198" height="52" viewBox="0 0 198 52" fill="none" xmlns="http://www.w3.org/2000/svg">
<mask id="mask0_1469_743" style="mask-type:luminance" maskUnits="userSpaceOnUse" x="0" y="9" width="197" height="41">
<path d="M196.651 9H0.269531V49.2143H196.651V9Z" fill="white"/>
</mask>
<g mask="url(#mask0_1469_743)">
<path d="M29.0528 27.0622C28.9449 30.5931 28.4867 31.2939 26.4922 31.2939V35.7412H27.2199C32.1793 35.7412 33.3653 33.1806 33.554 27.4934L33.7426 21.1864H38.3786V35.7412H43.2302V16.793H29.3492L29.0528 27.0622Z" fill="white"/>
</g>
<mask id="mask1_1469_743" style="mask-type:luminance" maskUnits="userSpaceOnUse" x="0" y="9" width="197" height="41">
<path d="M196.651 9H0.269531V49.2143H196.651V9Z" fill="white"/>
</mask>
<g mask="url(#mask1_1469_743)">
<path d="M55.336 22.561H51.8321V16.793H46.9805V35.7412H55.3899C60.6728 35.7412 62.5595 32.3181 62.5595 29.0837C62.5595 24.9059 59.945 22.561 55.336 22.561ZM54.9586 31.5903H51.8321V26.7657H54.9586C56.6298 26.7657 57.654 27.4934 57.654 29.0837C57.654 30.8087 56.6837 31.5903 54.9586 31.5903Z" fill="white"/>
</g>
<mask id="mask2_1469_743" style="mask-type:luminance" maskUnits="userSpaceOnUse" x="0" y="9" width="197" height="41">
<path d="M196.651 9H0.269531V49.2143H196.651V9Z" fill="white"/>
</mask>
<g mask="url(#mask2_1469_743)">
<path d="M78.3536 16.3629V9.32812H73.502V16.3629C67.9496 16.8211 64.2031 20.7833 64.2031 26.2548C64.2031 31.7802 67.9496 35.7154 73.502 36.2006V43.3432H78.3536V36.2006C83.906 35.7693 87.6525 31.7802 87.6525 26.2548C87.6525 20.7294 83.906 16.7942 78.3536 16.3629ZM73.502 31.6185C70.8067 31.2412 69.1356 29.2197 69.1356 26.2548C69.1356 23.2899 70.8067 21.2684 73.502 20.8911V31.6185ZM78.3536 31.6185V20.9181C81.049 21.2684 82.747 23.2899 82.747 26.2548C82.747 29.2197 81.049 31.2412 78.3536 31.6185Z" fill="white"/>
</g>
<mask id="mask3_1469_743" style="mask-type:luminance" maskUnits="userSpaceOnUse" x="0" y="9" width="197" height="41">
<path d="M196.651 9H0.269531V49.2143H196.651V9Z" fill="white"/>
</mask>
<g mask="url(#mask3_1469_743)">
<path d="M105.846 29.9192V23.5583C105.846 18.9223 102.881 15.9844 97.895 15.9844C92.7469 15.9844 90.0246 19.084 89.782 22.3184H94.6875C94.8493 21.6176 95.604 20.4047 97.895 20.4047C99.7817 20.4047 100.995 21.2672 100.995 23.5583H96.17C91.8574 23.5583 89.2969 25.8223 89.2969 29.5958C89.2969 33.531 92.1 36.2263 96.143 36.2263C99.1079 36.2263 100.752 34.8247 101.453 33.7736C102.1 35.0404 103.501 35.7681 105.361 35.7681H107.032V31.3747C106.17 31.3747 105.846 30.9704 105.846 29.9192ZM100.995 28.6794C100.995 30.8626 99.4583 32.1025 97.4368 32.1025C95.6848 32.1025 94.3102 31.4556 94.3102 29.5688C94.3102 27.7091 95.8196 27.4126 97.1403 27.4126H101.022V28.6794H100.995Z" fill="white"/>
</g>
<mask id="mask4_1469_743" style="mask-type:luminance" maskUnits="userSpaceOnUse" x="0" y="9" width="197" height="41">
<path d="M196.651 9H0.269531V49.2143H196.651V9Z" fill="white"/>
</mask>
<g mask="url(#mask4_1469_743)">
<path d="M126.6 19.4895H121.182V14.1258H133.742V9.32812H116.088V35.7693H126.6C132.422 35.7693 135.764 32.8853 135.764 27.5486C135.764 22.5352 132.449 19.4895 126.6 19.4895ZM126.384 30.9716H121.209V24.0985H126.384C129.079 24.0985 130.589 25.3384 130.589 27.5216C130.589 29.7857 129.079 30.9716 126.384 30.9716Z" fill="white"/>
</g>
<mask id="mask5_1469_743" style="mask-type:luminance" maskUnits="userSpaceOnUse" x="0" y="9" width="197" height="41">
<path d="M196.651 9H0.269531V49.2143H196.651V9Z" fill="white"/>
</mask>
<g mask="url(#mask5_1469_743)">
<path d="M154.334 29.9192V23.5583C154.334 18.9223 151.37 15.9844 146.383 15.9844C141.235 15.9844 138.513 19.084 138.27 22.3184H143.176C143.338 21.6176 144.092 20.4047 146.383 20.4047C148.27 20.4047 149.483 21.2672 149.483 23.5583H144.658C140.346 23.5583 137.785 25.8223 137.785 29.5958C137.785 33.531 140.588 36.2263 144.631 36.2263C147.596 36.2263 149.24 34.8247 149.941 33.7736C150.588 35.0404 151.99 35.7681 153.849 35.7681H155.52V31.3747C154.658 31.3747 154.334 30.9704 154.334 29.9192ZM149.483 28.6794C149.483 30.8626 147.947 32.1025 145.925 32.1025C144.173 32.1025 142.798 31.4556 142.798 29.5688C142.798 27.7091 144.308 27.4126 145.629 27.4126H149.51V28.6794H149.483Z" fill="white"/>
</g>
<mask id="mask6_1469_743" style="mask-type:luminance" maskUnits="userSpaceOnUse" x="0" y="9" width="197" height="41">
<path d="M196.651 9H0.269531V49.2143H196.651V9Z" fill="white"/>
</mask>
<g mask="url(#mask6_1469_743)">
<path d="M26.1986 43.832H0.269531V49.2227H26.1986V43.832Z" fill="white"/>
</g>
<mask id="mask7_1469_743" style="mask-type:luminance" maskUnits="userSpaceOnUse" x="0" y="9" width="197" height="41">
<path d="M196.651 9H0.269531V49.2143H196.651V9Z" fill="white"/>
</mask>
<g mask="url(#mask7_1469_743)">
<path d="M17.9509 12.9352C17.1962 10.752 16.3607 9 13.4227 9C10.5118 9 9.62233 10.725 8.84068 12.9352L0.808594 35.7646H6.1184L7.97818 30.347H18.2204L19.9455 35.7646H25.6056L17.9509 12.9352ZM9.54147 25.738L13.1802 14.9297H13.3149L16.738 25.738H9.54147Z" fill="white"/>
</g>
<path d="M189.913 16.8008L183.229 24.3208V16.8008H178.377V35.7759H183.229V27.7708L190.398 35.7759H196.651L187.838 25.8301L196.004 16.8008H189.913Z" fill="white"/>
<path d="M169.806 23.8895H163.121V16.8008H158.27V35.7759H163.121V28.2829H169.806V35.7759H174.657V16.8008H169.806V23.8895Z" fill="white"/>
</svg>
