<svg width="70" height="70" viewBox="0 0 70 70" fill="none" xmlns="http://www.w3.org/2000/svg">
<g clip-path="url(#clip0_2210_5506)">
<path d="M53.0293 0H16.9687C7.59661 0 -0.000976562 7.59759 -0.000976562 16.9697V53.0303C-0.000976562 62.4024 7.59661 70 16.9687 70H53.0293C62.4014 70 69.999 62.4024 69.999 53.0303V16.9697C69.999 7.59759 62.4014 0 53.0293 0Z" fill="#1666F7"/>
<g clip-path="url(#clip1_2210_5506)">
<path d="M54.1667 25.4193H40.75V21.5859H54.1667V25.4193ZM57.4748 44.5859C56.6277 47.0719 53.5859 50.3359 47.6979 50.3359C41.8061 50.3359 37.0336 47.022 37.0336 39.4589C37.0336 31.9647 41.4898 28.1122 47.5101 28.1122C53.4173 28.1122 57.0244 31.5277 57.8122 36.5954C57.9617 37.5652 58.0211 38.8724 57.9943 40.697H42.6092C42.8583 46.8514 49.2849 47.045 51.4028 44.5859H57.4748ZM42.7433 36.9193H52.2596C52.0583 33.9542 50.0823 32.6662 47.512 32.6662C44.7022 32.6662 43.1478 34.1382 42.7433 36.9193ZM24.3932 50.3129H12V21.6262H25.3266C35.8223 21.7814 36.0216 32.0605 30.5399 34.8627C37.1735 37.2777 37.3958 50.3129 24.3932 50.3129ZM17.75 33.0859H24.6193C29.4263 33.0859 30.1892 27.3359 24.0213 27.3359H17.75V33.0859ZM24.2494 38.8359H17.75V44.6166H24.1536C30.009 44.6166 29.6506 38.8359 24.2494 38.8359Z" fill="white"/>
</g>
</g>
<defs>
<clipPath id="clip0_2210_5506">
<rect width="70" height="70" fill="white" transform="translate(-0.000976562)"/>
</clipPath>
<clipPath id="clip1_2210_5506">
<rect width="46" height="46" fill="white" transform="translate(12 12)"/>
</clipPath>
</defs>
</svg>
