<svg width="98" height="47" viewBox="0 0 98 47" fill="none" xmlns="http://www.w3.org/2000/svg">
<path d="M14 37C12.35 37 10.8375 36.7596 9.4625 36.2789C8.11805 35.7681 6.95695 35.0319 5.97917 34.0704C5.03195 33.1089 4.29861 31.9371 3.77917 30.5549C3.25972 29.1427 3 27.5352 3 25.7324C3 24.0498 3.22917 22.5925 3.6875 21.3606C4.17639 20.1286 4.7875 19.107 5.52083 18.2958C6.25417 17.4545 7.07917 16.8085 7.99583 16.3577C8.94306 15.877 9.875 15.5465 10.7917 15.3662C9.75278 15.0357 8.85139 14.6901 8.0875 14.3296C7.35417 13.969 6.74305 13.5634 6.25417 13.1127C5.76528 12.662 5.39861 12.1512 5.15417 11.5803C4.94028 10.9793 4.83333 10.2883 4.83333 9.50704C4.83333 8.15493 5.26111 7.07324 6.11667 6.26197C7.00278 5.42066 8.25556 5 9.875 5H22.1583V8.83098H11.3875C10.8681 8.83098 10.4403 8.95118 10.1042 9.19155C9.79861 9.40188 9.64583 9.7324 9.64583 10.1831C9.64583 10.784 10.0278 11.2798 10.7917 11.6704C11.5556 12.061 12.5028 12.4667 13.6333 12.8873C14.7639 13.2779 15.9861 13.7587 17.3 14.3296C18.6444 14.9005 19.8819 15.6667 21.0125 16.6282C22.1431 17.5596 23.0903 18.7615 23.8542 20.2338C24.6181 21.6761 25 23.5089 25 25.7324C25 27.415 24.7556 28.9474 24.2667 30.3296C23.8083 31.7117 23.1208 32.8986 22.2042 33.8901C21.2875 34.8817 20.1417 35.6479 18.7667 36.1887C17.3917 36.7296 15.8028 37 14 37ZM14 32.9437C16.0167 32.9437 17.6208 32.3427 18.8125 31.1408C20.0347 29.9089 20.6458 28.1061 20.6458 25.7324C20.6458 23.3887 20.0347 21.6009 18.8125 20.369C17.6208 19.1371 16.0167 18.5211 14 18.5211C11.9833 18.5211 10.3639 19.1371 9.14167 20.369C7.95 21.6009 7.35417 23.3887 7.35417 25.7324C7.35417 28.1061 7.95 29.9089 9.14167 31.1408C10.3639 32.3427 11.9833 32.9437 14 32.9437Z" fill="white"/>
<path d="M39.2245 37C37.5483 37 36.0218 36.7273 34.6449 36.1818C33.268 35.6061 32.0857 34.7879 31.098 33.7273C30.1102 32.6667 29.3469 31.3636 28.8082 29.8182C28.2694 28.2727 28 26.5 28 24.5C28 22.5 28.2694 20.7273 28.8082 19.1818C29.3469 17.6364 30.0952 16.3333 31.0531 15.2727C32.0109 14.2121 33.1633 13.4091 34.5102 12.8636C35.8871 12.2879 37.3837 12 39 12C40.7959 12 42.3823 12.3333 43.7592 13C45.1361 13.6667 46.2735 14.5455 47.1714 15.6364C48.0993 16.7273 48.8027 17.9545 49.2816 19.3182C49.7605 20.6515 50 22 50 23.3636C50 23.697 49.985 24.0152 49.9551 24.3182C49.9252 24.6212 49.8952 24.8939 49.8653 25.1364C49.8354 25.4091 49.8054 25.6515 49.7755 25.8636H32.4449C32.5946 28.1364 33.283 29.8788 34.5102 31.0909C35.7374 32.303 37.3088 32.9091 39.2245 32.9091C40.4816 32.9091 41.5592 32.6818 42.4571 32.2273C43.3551 31.7424 44.1483 30.9849 44.8367 29.9545H49.551C48.7728 32.0152 47.5007 33.7121 45.7347 35.0455C43.9986 36.3485 41.8286 37 39.2245 37ZM45.6 22.2273C45.3306 20.2879 44.6122 18.7879 43.4449 17.7273C42.2775 16.6364 40.7959 16.0909 39 16.0909C37.2041 16.0909 35.7224 16.6364 34.5551 17.7273C33.3878 18.7879 32.6844 20.2879 32.4449 22.2273H45.6Z" fill="white"/>
<path d="M58.8652 17.0755H51V13H71V17.0755H63.1348V37H58.8652V17.0755Z" fill="white"/>
<path d="M82.7423 37C81.3278 37 80.0289 36.7424 78.8454 36.2273C77.6619 35.6818 76.6371 34.8788 75.7711 33.8182C74.9052 32.7576 74.2268 31.4545 73.7361 29.9091C73.2454 28.3636 73 26.5606 73 24.5C73 22.4697 73.2454 20.6818 73.7361 19.1364C74.2268 17.5606 74.9052 16.2424 75.7711 15.1818C76.6371 14.1212 77.6619 13.3333 78.8454 12.8182C80.0289 12.2727 81.3278 12 82.7423 12C84.3876 12 85.8021 12.3485 86.9856 13.0455C88.1691 13.7424 89.1361 14.6061 89.8866 15.6364H90.1031L90.7526 12.4545H94V36.5455H90.7526L90.1031 33.3636H89.8866C89.1361 34.3939 88.1691 35.2576 86.9856 35.9545C85.8021 36.6515 84.3876 37 82.7423 37ZM83.3918 32.9091C84.3155 32.9091 85.167 32.7424 85.9464 32.4091C86.7546 32.0455 87.4474 31.5152 88.0247 30.8182C88.6021 30.1212 89.0495 29.2576 89.367 28.2273C89.7134 27.1667 89.8866 25.9242 89.8866 24.5C89.8866 23.0758 89.7134 21.8485 89.367 20.8182C89.0495 19.7576 88.6021 18.8788 88.0247 18.1818C87.4474 17.4848 86.7546 16.9697 85.9464 16.6364C85.167 16.2727 84.3155 16.0909 83.3918 16.0909C81.5443 16.0909 80.0289 16.7879 78.8454 18.1818C77.6907 19.5455 77.1134 21.6515 77.1134 24.5C77.1134 27.3485 77.6907 29.4697 78.8454 30.8636C80.0289 32.2273 81.5443 32.9091 83.3918 32.9091Z" fill="white"/>
</svg>
