<svg width="71" height="70" viewBox="0 0 71 70" fill="none" xmlns="http://www.w3.org/2000/svg">
<path d="M53.0303 0H16.9697C7.59759 0 0 7.59759 0 16.9697V53.0303C0 62.4024 7.59759 70 16.9697 70H53.0303C62.4024 70 70 62.4024 70 53.0303V16.9697C70 7.59759 62.4024 0 53.0303 0Z" fill="black"/>
<path d="M36.4869 43.1867C36.6408 43.3401 36.763 43.5224 36.8463 43.7231C36.9297 43.9238 36.9726 44.1389 36.9726 44.3562C36.9726 44.5735 36.9297 44.7887 36.8463 44.9894C36.763 45.1901 36.6408 45.3723 36.4869 45.5257L35.6694 46.343C34.1204 47.8917 32.0196 48.7617 29.829 48.7617C27.6384 48.7617 25.5375 47.8917 23.9885 46.343C22.4395 44.7943 21.5693 42.6939 21.5693 40.5037C21.5693 38.3136 22.4395 36.2131 23.9885 34.6644L27.3078 31.3472C28.7961 29.8555 30.7986 28.9892 32.905 28.9258C35.0114 28.8623 37.0624 29.6065 38.6378 31.006C38.8005 31.1505 38.9331 31.3257 39.028 31.5214C39.1229 31.7172 39.1784 31.9298 39.1912 32.147C39.2039 32.3642 39.1738 32.5817 39.1025 32.7873C39.0311 32.9929 38.92 33.1823 38.7754 33.345C38.6309 33.5076 38.4557 33.6401 38.2599 33.7351C38.064 33.83 37.8514 33.8854 37.6342 33.8982C37.417 33.911 37.1993 33.8808 36.9937 33.8095C36.7881 33.7382 36.5986 33.6271 36.436 33.4826C35.4912 32.6437 34.2617 32.1974 32.9987 32.235C31.7358 32.2726 30.5349 32.7913 29.6418 33.6848L26.3253 36.998C25.396 37.927 24.874 39.1871 24.874 40.501C24.874 41.8149 25.396 43.0749 26.3253 44.004C27.2545 44.9331 28.5148 45.455 29.829 45.455C31.1431 45.455 32.4035 44.9331 33.3327 44.004L34.1501 43.1867C34.3035 43.0332 34.4856 42.9114 34.6861 42.8283C34.8866 42.7452 35.1015 42.7025 35.3185 42.7025C35.5355 42.7025 35.7504 42.7452 35.9509 42.8283C36.1514 42.9114 36.3335 43.0332 36.4869 43.1867ZM46.6815 23.6491C45.1313 22.1028 43.0309 21.2344 40.8411 21.2344C38.6513 21.2344 36.5509 22.1028 35.0006 23.6491L34.1832 24.4663C33.8729 24.7765 33.6986 25.1972 33.6986 25.6358C33.6986 26.0745 33.8729 26.4952 34.1832 26.8054C34.4934 27.1155 34.9142 27.2898 35.3529 27.2898C35.7917 27.2898 36.2124 27.1155 36.5227 26.8054L37.3401 25.9881C38.2693 25.059 39.5297 24.5371 40.8438 24.5371C42.158 24.5371 43.4183 25.059 44.3475 25.9881C45.2768 26.9171 45.7988 28.1772 45.7988 29.4911C45.7988 30.805 45.2768 32.0651 44.3475 32.9941L41.0296 36.3128C40.1357 37.2059 38.9342 37.7238 37.6709 37.7604C36.4077 37.797 35.1782 37.3495 34.2341 36.5095C34.0714 36.365 33.8819 36.2539 33.6763 36.1825C33.4707 36.1112 33.2531 36.0811 33.0358 36.0939C32.8186 36.1067 32.606 36.1621 32.4102 36.257C32.2144 36.3519 32.0392 36.4845 31.8946 36.6471C31.75 36.8097 31.6389 36.9992 31.5676 37.2048C31.4962 37.4103 31.4661 37.6279 31.4789 37.8451C31.4917 38.0623 31.5471 38.2749 31.6421 38.4706C31.737 38.6664 31.8696 38.8416 32.0322 38.9861C33.6065 40.3852 35.6561 41.1299 37.7616 41.0677C39.867 41.0056 41.8691 40.1413 43.3581 38.6518L46.6774 35.3345C48.2258 33.7849 49.0959 31.6844 49.0967 29.494C49.0975 27.3036 48.2288 25.2025 46.6815 23.6518V23.6491Z" fill="white"/>
</svg>
