<svg width="71" height="70" viewBox="0 0 71 70" fill="none" xmlns="http://www.w3.org/2000/svg">
<g clip-path="url(#clip0_2110_5721)">
<path d="M53.6973 0H17.6367C8.26458 0 0.666992 7.59759 0.666992 16.9697V53.0303C0.666992 62.4024 8.26458 70 17.6367 70H53.6973C63.0694 70 70.667 62.4024 70.667 53.0303V16.9697C70.667 7.59759 63.0694 0 53.6973 0Z" fill="white"/>
<path fill-rule="evenodd" clip-rule="evenodd" d="M45.0803 16.2909L54.3768 25.5863C59.5756 30.7851 59.5756 39.2135 54.3768 44.4123L45.0803 53.7089C39.8815 58.9077 31.4531 58.9077 26.2543 53.7089L16.9577 44.4123C11.7589 39.2135 11.7589 30.7851 16.9577 25.5863L26.2543 16.2897C31.4531 11.0909 39.8815 11.0909 45.0803 16.2897V16.2909ZM19.2762 40.4163V29.5801C19.2762 23.521 24.189 18.6082 30.2492 18.6082H41.0854C47.1456 18.6082 52.0584 23.521 52.0584 29.5812V40.4174C52.0584 46.4776 47.1456 51.3904 41.0854 51.3904H30.2492C24.189 51.3904 19.2762 46.4765 19.2762 40.4163Z" fill="black"/>
</g>
<defs>
<clipPath id="clip0_2110_5721">
<rect width="70" height="70" fill="white" transform="translate(0.666992)"/>
</clipPath>
</defs>
</svg>
