<svg width="191" height="46" viewBox="0 0 191 46" fill="none" xmlns="http://www.w3.org/2000/svg">
<g clip-path="url(#clip0_1475_2228)">
<path fill-rule="evenodd" clip-rule="evenodd" d="M178.087 14.2036H182.019L181.995 20.4036H182.849L185.093 14.2036H189.348L186.294 22.3946L189.788 31.4616H185.185L182.921 24.5216H181.995L182.019 31.4616H178.087V14.2036ZM164.841 14.2036H168.749V20.4266H171.547V14.2026H175.452V31.4606H171.547V24.5436H168.749V31.4606H164.841V14.2036ZM151.222 31.4836H155.291L155.778 28.4996H158.573L159.06 31.4836H163.129L159.707 14.2286H154.666L151.222 31.4836ZM157.186 19.4536L157.926 24.7056H156.422L157.186 19.4536ZM140.306 31.4616H145.069C146.109 31.4616 150.434 31.0206 150.457 25.7916C150.457 21.4016 147.106 20.6366 144.931 20.6366H144.215V18.3456H149.509V14.2046H140.306V31.4616ZM144.215 27.9906V24.0826H144.793C145.278 24.0826 146.528 24.1046 146.528 25.8856C146.528 27.6926 145.278 27.9906 144.793 27.9906H144.215ZM124.793 14.2036H128.192L131.195 18.2746L134.227 14.2036H137.603V31.4616H133.599V20.9356L131.195 23.9426L128.793 20.9346V31.4616H124.793V14.2036ZM116.537 31.6706C121.277 31.6706 122.871 27.2266 122.871 22.8106C122.871 18.3936 121.277 13.9506 116.537 13.9506C111.798 13.9506 110.203 18.3936 110.203 22.8106C110.203 27.2266 111.798 31.6706 116.537 31.6706ZM116.537 27.4816C115.124 27.4816 114.411 25.8416 114.411 22.8096C114.411 19.7786 115.124 18.1366 116.537 18.1366C117.95 18.1366 118.663 19.7786 118.663 22.8106C118.663 25.8416 117.95 27.4816 116.537 27.4816ZM98.6166 31.4616H102.617V25.7716H103.96C107.912 25.7716 109.139 22.2076 109.139 19.9376C109.139 17.7186 107.726 14.2036 103.96 14.2036H98.6166V31.4616ZM102.617 17.9976H103.566C104.468 17.9976 105.047 18.5526 105.047 19.9876C105.047 21.8376 104.074 21.9746 103.566 21.9746H102.617V17.9976ZM85.4146 14.2036H96.3276V31.4616H92.3276V18.3666H89.4146V31.4606H85.4146V14.2036ZM77.2056 20.8906C77.8516 20.8906 79.0336 20.4736 79.0336 19.2016C79.0336 17.6986 77.6696 17.6036 77.2736 17.6036C76.8136 17.6036 75.9356 17.6756 75.0786 18.0916L75.0326 14.3416C76.3966 13.9956 77.3686 13.9026 78.5226 13.9026C81.8086 13.9026 83.2646 16.1946 83.2646 18.4356C83.2646 20.6126 82.0146 21.9276 80.7906 22.4386V22.5996C81.9706 22.9736 83.5416 24.1036 83.5416 26.7416C83.5416 30.0056 81.2766 31.8076 78.3616 31.8076C76.8126 31.7866 75.7956 31.5776 74.5696 30.9076L74.6396 27.3196C75.7726 27.8076 76.5356 27.8526 77.2996 27.8526C78.5946 27.8526 79.1016 26.9026 79.1016 26.2116C79.1016 25.2386 78.4776 24.5916 77.1146 24.5916H75.4946V20.8916H77.2056V20.8906ZM61.4856 31.4616H65.5306L66.0406 28.4756H68.8376L69.3226 31.4616H73.3676L69.9456 14.2036H64.9056L61.4856 31.4616ZM67.4256 19.4096L68.1896 24.6836H66.6626L67.4256 19.4096ZM53.7396 14.2036H61.9446V18.5056H57.8076V31.4616H53.7396V14.2036ZM20.2786 2.72656C9.23863 2.72656 0.265625 11.6966 0.265625 22.7366C0.265625 33.7556 9.23963 42.7266 20.2786 42.7266C31.2936 42.7266 40.2656 33.7556 40.2656 22.7366C40.2656 11.6966 31.2936 2.72656 20.2786 2.72656ZM20.2786 41.7266C9.79463 41.7266 1.26562 33.2056 1.26562 22.7366C1.26562 12.2516 9.79063 3.72656 20.2786 3.72656C30.7456 3.72656 39.2656 12.2536 39.2656 22.7366C39.2656 33.2036 30.7426 41.7266 20.2786 41.7266Z" fill="white"/>
<path fill-rule="evenodd" clip-rule="evenodd" d="M12.0592 10.7633C16.8902 8.61328 22.7882 8.75328 25.9532 10.1633C26.9482 10.6263 27.6172 10.9063 27.9202 11.4583C24.6352 10.5783 23.2252 10.4193 20.4752 10.4863C16.5652 10.5563 11.3632 12.1043 9.37523 13.2873L8.50023 14.3763C11.3632 12.6823 16.7052 11.5763 19.6672 11.4823C22.9732 11.4373 25.5372 11.7383 27.8972 12.5933C27.7572 13.1933 27.4572 13.4953 26.9492 13.7973C17.5152 12.1533 11.9422 14.0953 6.90123 17.3803L6.53323 18.4663C12.1522 14.6063 19.0402 13.5433 25.6782 14.6983C23.2962 15.5313 20.4522 15.7163 18.0712 16.2673C16.0372 16.7313 14.9502 16.8713 12.2412 17.7753C9.49423 18.6773 7.87123 19.6023 6.85623 20.7823C6.37023 21.3393 6.00023 21.9853 5.90623 22.6773C5.86323 23.0923 5.88623 23.4653 6.02623 23.8373C6.13623 24.1603 6.39223 24.4833 6.67123 24.8073C6.34923 25.3613 6.06723 26.0813 6.53323 26.9143C6.74023 27.3043 7.27223 27.6973 7.78323 28.0713L7.64023 28.4843C7.57023 28.9733 7.50323 29.5493 7.82723 30.0343C8.38023 30.9133 9.05123 31.4933 10.1142 32.0483C10.2782 32.7663 10.5302 33.3423 11.0852 33.8543C12.2642 34.9393 14.9022 37.0213 19.5942 37.3463C23.1112 37.5793 25.6302 36.5133 26.5792 36.0503L27.7342 35.4503C25.7702 36.2343 22.4642 36.6983 19.7562 36.4663C15.8262 36.1423 12.3142 33.5763 11.8742 32.8343C12.0112 32.9243 12.1972 32.9953 12.3562 33.0663C16.9592 35.2863 22.9012 36.4903 30.5092 33.3903L31.1362 32.7883C24.2192 34.9383 18.1642 34.8713 11.6642 31.4703C11.7352 31.1473 11.8742 30.8653 12.1722 30.6393C13.8362 31.3743 15.4332 31.9793 17.3762 32.3713C19.6422 32.7883 22.2312 32.8823 24.3602 32.7883C26.5102 32.6963 30.7632 31.6323 32.7762 30.5683C32.9602 30.4073 33.0522 30.1313 33.2362 29.9443C29.3082 31.3743 24.6362 32.0483 21.8162 31.8383C19.0642 31.6323 16.6162 31.3063 13.3762 29.8273C14.0043 29.5778 14.6448 29.3609 15.2952 29.1773C17.4222 29.8273 19.5942 30.2173 22.1612 30.3353C24.7072 30.4513 30.6482 29.5053 34.3932 27.2383C34.5102 26.9143 34.6252 26.5643 34.6252 26.5643C34.6252 26.5643 29.4222 29.3443 23.5282 29.3443C20.7752 29.3443 19.0882 28.9483 17.8402 28.6483C20.6132 28.1383 24.1062 27.7213 28.0342 26.7283C30.0222 26.2183 32.4742 25.0603 33.5842 24.0903C34.5322 23.2323 35.2732 22.1213 35.0202 20.9923C34.9702 20.6883 34.5552 19.9753 34.0462 19.7183C34.5322 19.0943 34.4862 18.5613 34.4182 18.1013C34.3702 17.7493 34.2082 17.3593 34.0032 17.0133C33.6704 16.5565 33.243 16.1769 32.7502 15.9003C32.8464 15.4147 32.7818 14.9109 32.5662 14.4653C32.0812 13.6323 31.2042 12.9173 29.7002 12.1533C29.6312 11.8513 29.4442 11.4583 29.1232 11.0663C27.2282 9.19228 24.1282 8.29028 21.5142 8.24328C21.3693 8.24003 21.2242 8.23836 21.0792 8.23828C18.0222 8.23828 15.5682 8.92528 14.0492 9.63428C13.2592 9.97628 12.6582 10.3483 12.0592 10.7633ZM29.5132 13.2873C30.1632 13.7043 30.9032 14.3293 30.9932 14.9773C30.3012 14.7193 29.5612 14.4473 28.8452 14.2603C29.0772 14.0053 29.4212 13.6123 29.5132 13.2873ZM26.0452 16.1793C26.8342 15.8763 27.3632 15.5553 27.8282 15.1833C28.8652 15.4593 29.8372 15.8083 30.6272 16.1533C30.4912 16.3563 29.6992 17.0883 29.4572 17.0883C29.4448 17.0891 29.4324 17.0867 29.4212 17.0813C28.3142 16.7783 27.3432 16.4083 26.0452 16.1793ZM32.2672 17.1033C32.8902 17.6353 33.0742 18.0053 32.7752 18.5843C32.3612 18.2843 31.9182 18.1213 31.4352 17.8903C31.7332 17.6583 32.0122 17.4063 32.2672 17.1033ZM13.0532 19.2333C15.9432 18.3733 19.3192 17.7303 22.3732 17.3593C24.4732 17.1033 25.5862 17.3373 27.5752 17.8683C22.4652 19.2323 17.4222 19.6693 12.6122 21.0823C8.73523 22.2093 7.70623 23.6283 7.69023 23.6283C5.97623 21.2683 11.9182 19.5823 13.0532 19.2333ZM15.7832 22.0763C20.0582 21.1513 24.0362 20.5743 25.6772 20.1583C27.6672 19.6693 29.0542 19.2093 30.0222 18.7483C30.0692 18.6783 31.6412 19.4403 31.8022 19.6223C31.2722 20.0643 30.5342 20.4363 29.7222 20.7103C27.2952 21.5903 22.8802 22.5143 20.5452 22.8673C18.1862 23.2583 16.2172 23.5573 13.6082 24.2483C12.1032 24.6453 11.0852 25.1073 10.3452 25.5943C9.79023 25.2693 9.46723 25.1783 8.95923 24.7603C10.7622 23.2323 14.4402 22.3773 15.7822 22.0763H15.7832ZM14.7142 25.8263C18.7842 24.8273 22.3712 24.6443 27.3192 23.3043C29.6992 22.6773 31.4342 22.0043 32.5222 21.1763C32.6822 21.0343 32.8432 20.9203 33.0072 20.7823C34.4402 23.0023 29.0532 24.7143 25.3742 25.5043C23.3392 25.9163 20.5182 26.4243 19.5932 26.5893C17.1932 26.9823 16.4022 27.1913 14.7382 27.6763C13.9062 27.3513 13.0732 27.0043 12.3132 26.6103C13.0732 26.2873 13.9062 26.0323 14.7132 25.8273L14.7142 25.8263ZM9.07423 26.5643C8.91223 26.7043 8.70323 26.8443 8.54223 27.0043C8.17423 26.7943 7.80223 26.3363 7.98623 25.9163C8.35623 26.1503 8.63323 26.3363 9.07423 26.5643ZM10.7612 27.4243C11.4552 27.7483 12.1712 28.0443 12.8412 28.3473C12.3906 28.512 11.9578 28.7217 11.5492 28.9733C10.9973 28.6721 10.4499 28.3628 9.90723 28.0453C10.1382 27.8373 10.4372 27.6303 10.7612 27.4233V27.4243ZM10.4862 29.8503C10.3232 30.0823 10.2062 30.2653 10.1392 30.4993C9.55923 30.0123 9.28023 29.6193 9.30523 29.1783C9.69823 29.4333 10.0912 29.6403 10.4852 29.8503H10.4862Z" fill="white"/>
</g>
<defs>
<clipPath id="clip0_1475_2228">
<rect width="190" height="45" fill="white" transform="translate(0.132812 0.363281)"/>
</clipPath>
</defs>
</svg>
