<svg width="211" height="41" viewBox="0 0 211 41" fill="none" xmlns="http://www.w3.org/2000/svg">
<path d="M94.7212 20.9008C94.7212 28.8558 89.834 32.6081 83.819 32.6081H80.1348V27.8802H83.5934C87.2776 27.8802 89.6836 25.9289 89.6836 20.9759C89.6836 16.0978 87.3528 13.6213 83.443 13.6213C79.6836 13.6213 76.9769 15.9477 76.9769 20.9008V40.8633H71.9393V9.41863H76.9769V12.1203H77.7287C79.3829 9.86891 81.9393 8.81825 84.4957 8.81825C90.0596 8.81825 94.7212 12.8708 94.7212 20.9008ZM61.413 18.8745L58.0295 18.5743C55.3979 18.3492 53.9694 17.5987 53.9694 16.0978C53.9694 14.2967 55.7739 13.246 58.3302 13.246C60.9618 13.246 62.6911 14.5218 62.8415 16.2479H67.7287C67.5032 11.7451 64.0445 8.96835 58.4054 8.96835C52.7663 8.96835 48.9317 11.9702 48.9317 16.3229C48.9317 20.0002 51.2626 22.3267 56.5257 22.852L59.9844 23.1522C62.0897 23.3773 63.443 23.7526 63.443 25.7789C63.443 27.58 62.1648 28.8558 58.7062 28.8558C55.5483 28.8558 53.9693 27.4299 53.443 25.4787H48.1799C48.7062 29.8314 52.3904 33.2835 58.7062 33.2835C64.646 33.2835 68.4806 30.1316 68.4806 25.5537C68.4806 21.3511 65.7739 19.3248 61.413 18.8745ZM114.345 25.4036C113.518 27.2047 111.639 28.6306 108.932 28.6306C105.248 28.6306 102.466 26.2291 102.466 21.0509C102.466 16.0978 105.022 13.3211 109.007 13.3211C112.541 13.3211 114.571 15.4224 114.721 18.6494H105.623V22.3267H119.684V19.9252C119.684 13.246 115.248 8.8933 108.932 8.8933C103.067 8.8933 97.428 12.8708 97.428 21.0509C97.428 29.231 103.067 33.2085 108.932 33.2085C114.345 33.2085 118.18 29.9064 119.308 25.4036H114.345ZM34.4957 8.81825C28.9318 8.81825 24.7964 11.67 24.3453 16.0978H29.7588C30.1348 14.4468 31.6385 13.246 34.4957 13.246C38.1799 13.246 39.3829 15.1972 39.3829 17.5237V25.4787C37.2776 27.8051 34.8716 28.9308 32.4656 28.9308C29.9844 28.9308 28.2551 27.7301 28.2551 25.5537C28.2551 23.4524 29.6084 22.1766 32.24 22.1766H36.3002V18.4993H32.0897C26.3002 18.4993 23.0671 21.3511 23.0671 25.7789C23.0671 29.9064 26.225 33.0584 31.3378 33.0584C34.1949 33.0584 36.7513 31.9327 38.631 30.5068H39.3829V32.458H44.4205V17.1485C44.4205 11.3698 40.5107 8.81825 34.4957 8.81825ZM0.134766 32.6081H5.17236V0.863281H0.134766V32.6081ZM21.413 9.41863H15.2475L7.87913 19.0997V22.1016L15.4731 32.6081H21.7137L12.8415 20.6006L21.413 9.41863ZM204.42 9.41863L200.285 18.5743C199.308 20.8258 198.33 22.9271 198.029 24.428H197.278C196.977 23.0021 195.999 20.9008 194.947 18.6494L190.887 9.41863H185.323L195.097 30.2817L190.285 40.7882H195.699L210.135 9.41863H204.42ZM184.12 9.41863H177.954L170.586 19.0997V22.1016L178.18 32.6081H184.42L175.548 20.6006L184.12 9.41863ZM152.466 18.8745L149.082 18.5743C146.451 18.3492 145.022 17.5987 145.022 16.0978C145.022 14.2967 146.826 13.246 149.383 13.246C152.014 13.246 153.744 14.5218 153.894 16.2479H158.781C158.556 11.7451 155.097 8.96835 149.458 8.96835C143.819 8.96835 139.984 11.9702 139.984 16.3229C139.984 20.0002 142.315 22.3267 147.578 22.852L151.037 23.1522C153.142 23.3773 154.496 23.7526 154.496 25.7789C154.496 27.58 153.217 28.8558 149.759 28.8558C146.601 28.8558 145.022 27.4299 144.496 25.4787H139.232C139.759 29.8314 143.443 33.2835 149.759 33.2835C155.699 33.2835 159.533 30.1316 159.533 25.5537C159.458 21.3511 156.751 19.3248 152.466 18.8745ZM162.842 32.6081H167.879V0.863281H162.842V32.6081ZM129.458 12.1203H128.706V9.41863H123.669V32.6081H128.706V20.5256C128.706 16.398 130.586 13.9965 134.42 13.9965H137.654V8.8933H135.774C132.315 8.81825 130.811 10.1691 129.458 12.1203Z" fill="white"/>
</svg>
