<svg width="97" height="32" viewBox="0 0 97 32" fill="none" xmlns="http://www.w3.org/2000/svg">
<path fill-rule="evenodd" clip-rule="evenodd" d="M34.1161 0.0364326C34.1161 0.0364326 35.4255 0.0364326 46.7005 0.0364326C57.9756 0.0364326 63.9647 8.88956 63.9647 16.0182C63.9647 23.1469 57.9877 31.9393 46.7005 31.9393H34.1161V0.0364326ZM40.1537 6.01139V26.0129H46.7005C53.7565 26.0129 57.8786 21.0945 57.8786 16.0304C57.8786 10.9662 53.7686 6.01139 46.7005 6.01139C39.6324 6.01139 40.1537 6.01139 40.1537 6.01139Z" fill="white"/>
<path fill-rule="evenodd" clip-rule="evenodd" d="M81.1682 0C91.9583 0 96.9412 6.97078 96.9412 11.962H91.1582C91.1582 10.6748 88.2606 5.9871 81.1682 5.9871C74.5487 5.9871 71.154 10.5169 71.154 16.0061C71.154 21.4953 75.0821 26.025 81.1682 26.025C88.8789 26.025 91.1582 21.0216 91.1582 19.4672H96.9412C96.9412 19.4672 96.9412 32 81.1682 32C70.4387 32 65.3832 23.0133 65.3832 15.9939C65.3832 8.97457 70.3781 0 81.1682 0Z" fill="white"/>
<path d="M17.1793 18.1799L24.6354 14.8767C24.7445 14.8281 24.8051 14.7309 24.8051 14.6095L24.8779 6.58216C24.8779 6.37571 24.6596 6.22998 24.4656 6.31499L17.0217 9.60607C16.9126 9.65465 16.852 9.7518 16.852 9.87325L16.7671 17.9127C16.7671 18.1192 16.9853 18.2649 17.1793 18.1799Z" fill="white"/>
<path d="M26.8419 0.400759C23.4473 -0.716509 19.9556 0.959393 17.3248 2.85389C15.0092 4.51765 12.6935 6.8129 10.5598 9.38748C10.681 11.282 10.8871 13.978 12.5844 16.6376C13.5058 15.3017 14.3787 14.148 15.5062 12.8121L15.5426 9.4482C15.5426 9.16888 15.7123 8.91385 15.979 8.79241L25.0233 4.79696C25.5083 4.57837 26.066 4.93055 26.066 5.4649C26.066 5.4649 26.066 17.597 26.0538 21.6896C10.9235 24.4584 9.74746 12.6543 9.46862 10.5776C9.27464 9.15674 9.16552 7.5537 9.16552 5.75636H3.12792C3.12792 10.3954 3.7826 14.2573 5.00709 17.3905C3.26128 19.5036 0 27.4338 0 31.9393H6.03761C6.03761 28.466 8.51084 23.6083 8.6927 23.244C9.95356 24.5313 14.6697 29.4254 26.0417 27.7009V31.9393H32.0793V7.82087C32.0672 1.79734 26.8055 0.388615 26.8419 0.400759Z" fill="white"/>
</svg>
