<svg width="60" height="61" viewBox="0 0 60 61" fill="none" xmlns="http://www.w3.org/2000/svg">
<path d="M27.563 19.9453C23.0755 19.9453 19.438 23.5828 19.438 28.0703C19.438 32.5578 23.0755 36.1953 27.563 36.1953C29.8067 36.1953 31.8367 35.2878 33.308 33.8153C34.7805 32.3441 35.688 30.3141 35.688 28.0703C35.688 23.5828 32.0505 19.9453 27.563 19.9453ZM16.938 28.0703C16.938 22.2028 21.6955 17.4453 27.563 17.4453C33.4305 17.4453 38.188 22.2028 38.188 28.0703C38.188 30.5528 37.3355 32.8391 35.908 34.6478L41.8842 40.6241L40.1167 42.3916L34.1405 36.4153C32.3317 37.8428 30.0455 38.6953 27.563 38.6953C21.6955 38.6953 16.938 33.9378 16.938 28.0703Z" fill="#616161"/>
</svg>
