<svg width="60" height="61" viewBox="0 0 60 61" fill="none" xmlns="http://www.w3.org/2000/svg">
<path d="M28.423 40.8752H28.4226C28.138 40.8753 27.862 40.7871 27.6316 40.6252H31.7147C31.5185 40.7634 31.2882 40.8487 31.0461 40.8705L30.9043 40.8752H28.423ZM29.673 19.375H29.673C31.6501 19.375 33.5498 20.1428 34.9716 21.5166C36.3911 22.8882 37.2233 24.7567 37.2934 26.7291L37.2981 27.0094V31.7051V31.9707L37.4168 32.2082L39.6944 36.7633L39.6944 36.7633C39.7125 36.7995 39.7215 36.8395 39.7208 36.8799C39.72 36.9202 39.7095 36.9599 39.69 36.9953C39.6706 37.0307 39.6429 37.0609 39.6093 37.0833C39.5805 37.1024 39.5482 37.1154 39.5144 37.1213L39.4412 37.1252H19.8754H19.8751C19.8347 37.1252 19.7948 37.1154 19.759 37.0966C19.7232 37.0779 19.6925 37.0507 19.6695 37.0175C19.6465 36.9843 19.6319 36.946 19.6269 36.9059C19.6227 36.8717 19.6255 36.8371 19.6353 36.8042L19.6644 36.7377L21.9292 32.2082L22.0479 31.9707V31.7051V27.0001C22.0479 24.9778 22.8513 23.0383 24.2813 21.6083C25.7112 20.1784 27.6507 19.375 29.673 19.375Z" stroke="#616161" stroke-width="2.25"/>
</svg>
