<svg width="60" height="61" viewBox="0 0 60 61" fill="none" xmlns="http://www.w3.org/2000/svg">
<path d="M41.7383 24.1909L30.3995 16.7047C30.0045 16.4422 29.4945 16.4422 29.0995 16.7047L17.7608 24.1922C17.4358 24.4084 17.2495 24.7622 17.2495 25.1384V41.6172C17.2495 42.2447 17.772 42.7584 18.4108 42.7584H26.7083C27.347 42.7584 27.8695 42.2459 27.8695 41.6172V32.7734H31.6295V41.6172C31.6295 42.2447 32.152 42.7584 32.7908 42.7584H41.0895C41.727 42.7584 42.2495 42.2459 42.2495 41.6172V25.1384C42.2495 24.7622 42.0508 24.4084 41.7383 24.1909ZM39.7495 40.2584L34.1245 40.2709L34.1383 31.3997C34.1383 30.7722 33.6158 30.2584 32.9783 30.2584H26.5495C25.9108 30.2584 25.3883 30.7709 25.3883 31.3997L25.3745 40.2584H19.7495V26.2247L29.7633 19.5472L39.7495 26.2134V40.2584Z" fill="#616161"/>
</svg>
