<svg width="60" height="61" viewBox="0 0 60 61" fill="none" xmlns="http://www.w3.org/2000/svg">
<path d="M39.1245 22.7422H35.9995V20.8672C35.9995 19.1422 34.5995 17.7422 32.8745 17.7422H26.6245C24.8995 17.7422 23.4995 19.1422 23.4995 20.8672V22.7422H20.3745C18.6495 22.7422 17.2495 24.1422 17.2495 25.8672V38.3672C17.2495 40.0922 18.6495 41.4922 20.3745 41.4922H39.1245C40.8495 41.4922 42.2495 40.0922 42.2495 38.3672V25.8672C42.2495 24.1422 40.8495 22.7422 39.1245 22.7422ZM25.9995 20.8672C25.9995 20.5172 26.287 20.2422 26.6245 20.2422H32.8745C33.2245 20.2422 33.4995 20.5172 33.4995 20.8672V22.7422H25.9995V20.8672ZM39.7495 38.3672C39.7495 38.7172 39.4745 38.9922 39.1245 38.9922H20.3745C20.037 38.9922 19.7495 38.7172 19.7495 38.3672V34.5672C20.487 35.0047 21.337 35.2422 22.2495 35.2422H28.4995V36.4922H30.9995V35.2422H37.2495C38.162 35.2422 39.012 35.0047 39.7495 34.5672V38.3672ZM39.7495 30.2547C39.7495 31.6297 38.6245 32.7422 37.2495 32.7422H30.9995V31.4922H28.4995V32.7422H22.2495C20.8745 32.7422 19.7495 31.6172 19.7495 30.2422V25.8672C19.7495 25.5172 20.037 25.2422 20.3745 25.2422H39.1245C39.4745 25.2422 39.7495 25.5172 39.7495 25.8672V30.2547Z" fill="#616161"/>
</svg>
