<svg width="119" height="27" viewBox="0 0 119 27" fill="none" xmlns="http://www.w3.org/2000/svg">
<path d="M72.153 0.863281C62.1951 0.863281 54.125 6.67634 54.125 13.8553C54.125 21.0343 62.1951 26.8474 72.153 26.8474C82.1109 26.8474 90.1811 21.0343 90.1811 13.8553C90.1811 6.67634 82.1109 0.863281 72.153 0.863281ZM72.153 20.7961C65.2785 20.7961 60.1343 17.1431 60.1343 13.8712C60.1343 10.5994 65.2785 6.94635 72.153 6.94635C79.0276 6.94635 84.1717 10.5994 84.1717 13.8712C84.1717 17.1431 79.0433 20.7961 72.153 20.7961Z" fill="white"/>
<path d="M13.0187 0.863281C5.90814 0.863281 0.150497 6.67634 0.134766 13.8553C0.134766 21.0343 5.89241 26.8474 13.0029 26.8633C20.1135 26.8633 25.8711 21.0502 25.8869 13.8712C25.8869 6.67636 20.1292 0.863281 13.0187 0.863281ZM19.8775 13.8553C19.8775 17.6831 16.8099 20.7802 13.0187 20.7961C9.22744 20.7961 6.14411 17.699 6.14411 13.8712C6.14411 10.0435 9.21171 6.93047 13.0029 6.93047C16.7942 6.93047 19.8775 10.0276 19.8775 13.8553Z" fill="white"/>
<path d="M49.4206 20.2106H39.211L52.2365 2.85081C52.6613 2.27903 52.268 1.45312 51.5443 1.45312H32.8241C30.9678 1.45312 29.379 3.16846 29.7723 5.10615C30.0554 6.53559 31.3769 7.50444 32.8241 7.50444H41.2089L28.1677 24.8801C27.7429 25.4519 28.1362 26.2619 28.8441 26.2619H49.3105C50.7578 26.2619 52.0792 25.2931 52.3624 23.8636C52.7556 21.9101 51.2769 20.2106 49.4206 20.2106Z" fill="white"/>
<path d="M118.136 4.48492V25.4025C118.136 25.5931 118.073 25.7837 117.947 25.9425C117.649 26.3237 117.098 26.3872 116.72 26.0854L100.486 13.0775V23.2424C100.486 24.9578 99.0858 26.3237 97.3868 26.276C95.7508 26.2284 94.4766 24.8148 94.4766 23.163V2.32487C94.4766 2.1184 94.5395 1.92781 94.6653 1.76898C94.9642 1.40368 95.5148 1.34016 95.8766 1.64193L112.111 14.6499V4.56433C112.111 2.91253 113.385 1.51486 115.006 1.45133C116.72 1.38779 118.136 2.76959 118.136 4.48492Z" fill="white"/>
</svg>
