<svg width="208" height="41" viewBox="0 0 208 41" fill="none" xmlns="http://www.w3.org/2000/svg">
<path d="M82.1518 16.6492C82.1518 17.7608 81.8836 18.8031 81.3472 19.7758C80.8306 20.7486 80.0063 21.5327 78.8738 22.1283C77.7614 22.7238 76.351 23.0216 74.6425 23.0216H71.1561V31.0021H66.9844V10.2171H74.6425C76.2516 10.2171 77.6223 10.4951 78.7547 11.0509C79.887 11.6068 80.7313 12.3711 81.2875 13.3438C81.8637 14.3166 82.1518 15.4183 82.1518 16.6492ZM74.4637 19.6567C75.6159 19.6567 76.4701 19.3987 77.0264 18.8824C77.5827 18.3464 77.8608 17.6021 77.8608 16.6492C77.8608 14.6243 76.7284 13.6118 74.4637 13.6118H71.1561V19.6567H74.4637ZM94.1127 14.2669C95.3643 14.2669 96.4767 14.5448 97.4502 15.1007C98.4236 15.6367 99.1785 16.4407 99.7149 17.5127C100.271 18.5648 100.549 19.8353 100.549 21.3243V31.0021H96.3775V21.8901C96.3775 20.5798 96.0496 19.5773 95.394 18.8824C94.7385 18.1678 93.8445 17.8104 92.7122 17.8104C91.56 17.8104 90.6462 18.1678 89.9708 18.8824C89.3152 19.5773 88.9875 20.5798 88.9875 21.8901V31.0021H84.8157V8.96647H88.9875V16.5598C89.5238 15.8452 90.2389 15.2893 91.1329 14.8923C92.0268 14.4753 93.0202 14.2669 94.1127 14.2669ZM120.011 14.5052L109.791 38.8038H105.351L108.926 30.5852L102.311 14.5052H106.99L111.251 26.0292L115.572 14.5052H120.011ZM128.429 14.2372C129.66 14.2372 130.743 14.4853 131.677 14.9816C132.61 15.4581 133.345 16.0833 133.882 16.8576V14.5052H138.083V31.1212C138.083 32.6497 137.776 34.0096 137.159 35.2007C136.544 36.4117 135.62 37.3646 134.388 38.0593C133.156 38.7741 131.666 39.1313 129.919 39.1313C127.574 39.1313 125.647 38.5855 124.138 37.4936C122.647 36.4017 121.803 34.9128 121.604 33.027H125.747C125.965 33.7813 126.432 34.3768 127.148 34.8136C127.882 35.2702 128.766 35.4985 129.8 35.4985C131.011 35.4985 131.995 35.1312 132.749 34.3967C133.504 33.6821 133.882 32.5902 133.882 31.1212V28.5603C133.345 29.3345 132.601 29.9797 131.647 30.4958C130.714 31.012 129.641 31.2701 128.429 31.2701C127.038 31.2701 125.766 30.9127 124.615 30.1981C123.462 29.4833 122.548 28.4808 121.873 27.1905C121.218 25.8803 120.89 24.3814 120.89 22.6941C120.89 21.0264 121.218 19.5476 121.873 18.2572C122.548 16.9668 123.453 15.9742 124.585 15.2793C125.736 14.5846 127.018 14.2372 128.429 14.2372ZM133.882 22.7536C133.882 21.7412 133.683 20.8776 133.286 20.1629C132.889 19.4284 132.352 18.8726 131.677 18.4953C131.001 18.0983 130.276 17.8998 129.501 17.8998C128.727 17.8998 128.011 18.0884 127.356 18.4656C126.701 18.8428 126.164 19.3987 125.747 20.1332C125.35 20.8478 125.151 21.7014 125.151 22.6941C125.151 23.6867 125.35 24.5601 125.747 25.3145C126.164 26.0491 126.701 26.6148 127.356 27.0118C128.032 27.4088 128.747 27.6073 129.501 27.6073C130.276 27.6073 131.001 27.4188 131.677 27.0416C132.352 26.6446 132.889 26.0887 133.286 25.3741C133.683 24.6396 133.882 23.7661 133.882 22.7536ZM143.975 12.5398C143.24 12.5398 142.625 12.3115 142.128 11.8549C141.651 11.3785 141.412 10.7928 141.412 10.098C141.412 9.40321 141.651 8.82751 142.128 8.37091C142.625 7.89447 143.24 7.65625 143.975 7.65625C144.711 7.65625 145.317 7.89447 145.793 8.37091C146.29 8.82751 146.538 9.40321 146.538 10.098C146.538 10.7928 146.29 11.3785 145.793 11.8549C145.317 12.3115 144.711 12.5398 143.975 12.5398ZM146.032 14.5052V31.0021H141.86V14.5052H146.032ZM154.712 17.9296V25.9101C154.712 26.4659 154.841 26.8728 155.1 27.1309C155.377 27.3692 155.835 27.4883 156.471 27.4883H158.407V31.0021H155.785C152.269 31.0021 150.511 29.2948 150.511 25.8803V17.9296H148.544V14.5052H150.511V10.4256H154.712V14.5052H158.407V17.9296H154.712ZM160.037 22.6941C160.037 21.0264 160.365 19.5476 161.02 18.2572C161.696 16.9668 162.6 15.9742 163.732 15.2793C164.885 14.5846 166.166 14.2372 167.577 14.2372C168.807 14.2372 169.88 14.4853 170.795 14.9816C171.728 15.4779 172.473 16.1032 173.03 16.8576V14.5052H177.231V31.0021H173.03V28.5901C172.493 29.3643 171.748 30.0095 170.795 30.5256C169.861 31.0219 168.778 31.2701 167.546 31.2701C166.156 31.2701 164.885 30.9127 163.732 30.1981C162.6 29.4833 161.696 28.4808 161.02 27.1905C160.365 25.8803 160.037 24.3814 160.037 22.6941ZM173.03 22.7536C173.03 21.7412 172.831 20.8776 172.434 20.1629C172.036 19.4284 171.499 18.8726 170.825 18.4953C170.149 18.0983 169.424 17.8998 168.65 17.8998C167.874 17.8998 167.159 18.0884 166.504 18.4656C165.848 18.8428 165.311 19.3987 164.895 20.1332C164.497 20.8478 164.298 21.7014 164.298 22.6941C164.298 23.6867 164.497 24.5601 164.895 25.3145C165.311 26.0491 165.848 26.6148 166.504 27.0118C167.179 27.4088 167.894 27.6073 168.65 27.6073C169.424 27.6073 170.149 27.4188 170.825 27.0416C171.499 26.6446 172.036 26.0887 172.434 25.3741C172.831 24.6396 173.03 23.7661 173.03 22.7536ZM185.179 8.96647V31.0021H181.008V8.96647H185.179ZM204.587 22.2176H198.955V27.9945H195.022V22.2176H189.391V18.5847H195.022V12.8078H198.955V18.5847H204.587V22.2176Z" fill="white"/>
<path d="M14.5249 26.3882H2.69C1.60943 26.3882 1.07172 25.7714 1.35338 24.8231L3.46841 17.7297C3.97027 16.0403 4.98425 15.3406 6.93028 15.3406H18.7652C19.8457 15.3406 20.3835 15.9574 20.1018 16.9057L17.9868 23.9991C17.4849 25.6885 16.4709 26.3882 14.5249 26.3882ZM22.3704 15.3406H34.2053C36.1514 15.3406 37.1653 14.6409 37.6673 12.9516L39.7822 5.85804C40.0639 4.90979 39.5261 4.29297 38.4456 4.29297H26.6107C24.6647 4.29297 23.6507 4.99265 23.1489 6.68202L21.0338 13.7755C20.7522 14.7237 21.2899 15.3406 22.3704 15.3406ZM31.865 26.3882H20.0301C18.084 26.3882 17.0701 27.0879 16.5682 28.7772L14.4532 35.8708C14.1715 36.819 14.7092 37.4358 15.7898 37.4358H27.6247C29.5707 37.4358 30.5848 36.7362 31.0866 35.0468L33.2017 27.9533C33.4832 27.0051 32.9456 26.3882 31.865 26.3882ZM51.5454 15.3406H39.7105C37.7645 15.3406 36.7505 16.0403 36.2487 17.7297L34.1336 24.8231C33.8519 25.7714 34.3897 26.3882 35.4703 26.3882H47.3052C49.2511 26.3882 50.2652 25.6885 50.767 23.9991L52.8821 16.9057C53.1638 15.9574 52.626 15.3406 51.5454 15.3406Z" fill="white"/>
</svg>
