<svg width="141" height="27" viewBox="0 0 141 27" fill="none" xmlns="http://www.w3.org/2000/svg">
<mask id="mask0_1468_739" style="mask-type:luminance" maskUnits="userSpaceOnUse" x="0" y="0" width="141" height="27">
<path d="M140.428 0.589844H0.517578V26.5898H140.428V0.589844Z" fill="white"/>
</mask>
<g mask="url(#mask0_1468_739)">
<path d="M116.284 21.0963C117.123 21.9271 118.33 22.3425 119.907 22.3425C120.944 22.371 121.964 22.0693 122.824 21.4794C123.638 20.9063 124.136 20.2957 124.32 19.6539H129.246C128.459 22.1462 127.25 23.925 125.62 24.9903C123.99 26.0558 122.021 26.5906 119.712 26.5948C118.23 26.6166 116.759 26.3512 115.375 25.8128C114.138 25.324 113.023 24.5635 112.107 23.5854C111.194 22.5917 110.49 21.418 110.039 20.1368C109.539 18.7215 109.291 17.2265 109.307 15.7225C109.295 14.2446 109.549 12.7769 110.057 11.3923C110.523 10.1023 111.245 8.92362 112.177 7.92949C113.109 6.93536 114.232 6.14703 115.476 5.61345C116.816 5.03906 118.258 4.7527 119.712 4.77233C121.281 4.73428 122.836 5.08493 124.243 5.79413C125.496 6.44679 126.581 7.38757 127.414 8.5418C128.256 9.72158 128.865 11.0568 129.207 12.4733C129.577 13.9802 129.71 15.5375 129.602 17.087H114.913C114.987 18.9291 115.444 20.2655 116.284 21.0963ZM122.606 10.1929C121.937 9.44522 120.917 9.07139 119.546 9.07139C118.779 9.04361 118.017 9.20165 117.322 9.53245C116.773 9.80558 116.289 10.1955 115.902 10.6758C115.562 11.1017 115.308 11.5919 115.155 12.1181C115.02 12.5619 114.934 13.0195 114.898 13.4826H123.999C123.742 12.033 123.277 10.9333 122.606 10.1835V10.1929Z" fill="white"/>
<path d="M59.1716 19.9543V9.36238H56.2676V5.24711H59.1716V0.574219H64.8235V5.24711H69.2819V9.36238H64.8235V19.0197C64.8235 20.6583 65.57 21.512 67.1031 21.512C67.8824 21.5139 68.659 21.4208 69.4166 21.2346V26.1007C68.2366 26.407 67.0235 26.561 65.8057 26.5587C61.4483 26.5493 59.1716 24.3125 59.1716 19.9543Z" fill="white"/>
<path d="M101.158 5.24665V9.24353C102.453 6.40553 104.457 4.96627 108.129 4.92578V10.3214C103.539 10.2809 101.158 11.6797 101.158 15.6766V26.1501H95.4668V5.24665H101.158Z" fill="white"/>
<path d="M136.624 18.8359C134.344 18.8359 132.814 20.3935 132.814 22.7114C132.814 25.0291 134.344 26.5897 136.624 26.5897C138.904 26.5897 140.43 25.0322 140.43 22.7114C140.43 20.3904 138.9 18.8359 136.624 18.8359Z" fill="white"/>
<path d="M136.624 5.875C134.344 5.875 132.814 7.43263 132.814 9.75039C132.814 12.0681 134.344 13.6289 136.624 13.6289C138.904 13.6289 140.43 12.0713 140.43 9.75039C140.43 7.42952 138.9 5.875 136.624 5.875Z" fill="white"/>
<path d="M72.0326 11.2061C72.4845 9.91962 73.2044 8.74791 74.143 7.77137C75.0817 6.79484 76.2167 6.03665 77.4702 5.54879C78.8506 5.01053 80.3191 4.74516 81.7971 4.76686C83.284 4.74621 84.7614 5.0115 86.1516 5.54879C87.4098 6.03219 88.5495 6.78863 89.4917 7.76557C90.4339 8.7425 91.156 9.91653 91.6076 11.2061C92.1233 12.6513 92.3772 14.1797 92.3574 15.717C92.3786 17.2484 92.1246 18.7708 91.6076 20.2092C91.1444 21.4916 90.4196 22.6595 89.4809 23.6361C88.5389 24.5991 87.403 25.343 86.1516 25.8167C84.7592 26.3448 83.283 26.6068 81.7971 26.5892C80.3187 26.6113 78.8494 26.3524 77.4642 25.8261C76.2198 25.3491 75.0906 24.6054 74.1531 23.6453C73.2146 22.6688 72.4897 21.501 72.0264 20.2186C71.5081 18.7806 71.254 17.258 71.2768 15.7264C71.2562 14.1853 71.5123 12.6534 72.0326 11.2061ZM77.1153 18.1438C77.2571 18.8966 77.5307 19.6174 77.9231 20.2715C78.2965 20.8942 78.8173 21.4115 79.4378 21.7762C80.1635 22.1732 80.9799 22.3667 81.8033 22.337C82.6324 22.3655 83.4543 22.1721 84.1871 21.7762C84.8144 21.4152 85.341 20.8973 85.7171 20.2715C86.1094 19.6174 86.3831 18.8966 86.5249 18.1438C86.685 17.3452 86.7649 16.5321 86.7635 15.717C86.7643 14.8958 86.6844 14.0766 86.5249 13.2715C86.3874 12.5175 86.1135 11.796 85.7171 11.1438C85.3325 10.525 84.8079 10.009 84.1871 9.63914C83.4582 9.23107 82.6346 9.03088 81.8033 9.05969C81.0321 9.01878 80.2643 9.19087 79.5812 9.55774C78.8983 9.92463 78.3254 10.4726 77.9231 11.1438C77.5261 11.7979 77.252 12.5215 77.1153 13.2778C76.9559 14.0827 76.8758 14.902 76.8766 15.7232C76.8757 16.5363 76.9556 17.3473 77.1153 18.1438Z" fill="white"/>
<path d="M52.6923 15.0391C51.3183 14.0795 49.3262 13.5219 46.765 13.1699C43.7814 12.7306 42.787 12.2104 42.787 10.8926C42.787 9.57486 43.8487 8.73375 45.694 8.73375C47.6738 8.73375 48.5796 9.51879 48.9008 11.201H54.1275C53.8429 8.83032 52.8667 7.20725 51.4254 6.2166C49.8954 5.2166 47.8911 4.77734 45.6542 4.77734C43.5734 4.77734 41.4925 5.2976 40.039 6.37548C39.2501 6.91583 38.6068 7.64889 38.1679 8.50766C37.729 9.36643 37.5086 10.3235 37.5267 11.2914C37.5267 13.3288 38.0377 14.768 39.2924 15.768C40.547 16.768 42.3953 17.3662 45.1064 17.8054C48.09 18.2447 49.2681 18.8459 49.2681 20.2976C49.2681 21.7493 48.2461 22.5748 46.049 22.5748C43.5612 22.5748 42.7288 21.5157 42.4473 19.6745H37.1504C37.3706 24.1543 40.5837 26.6123 46.0979 26.6123C51.554 26.6123 54.7333 24.254 54.7333 19.7368C54.7333 17.4783 53.9898 16.039 52.6923 15.0391Z" fill="white"/>
<path d="M21.3352 21.0951C22.1736 21.9258 23.3813 22.3412 24.9583 22.3412C25.995 22.3698 27.0144 22.0681 27.8746 21.4783C28.6884 20.905 29.1903 20.2945 29.3739 19.6528H34.2975C33.5121 22.1449 32.3045 23.9237 30.6745 24.9892C29.0444 26.0546 27.0738 26.5894 24.7624 26.5936C23.2823 26.616 21.8118 26.3506 20.4294 25.8115C19.1916 25.3228 18.0746 24.5623 17.1583 23.5842C16.2445 22.589 15.5395 21.4145 15.0867 20.1325C14.5875 18.717 14.3408 17.222 14.3583 15.7181C14.3452 14.2404 14.5982 12.7727 15.105 11.3879C15.5722 10.0987 16.2941 8.92065 17.2263 7.92671C18.1584 6.93275 19.2809 6.14397 20.5243 5.60912C21.8641 5.03472 23.3059 4.74836 24.7593 4.76799C26.331 4.73293 27.8876 5.08791 29.2944 5.80226C30.5468 6.45567 31.6331 7.39627 32.4675 8.54992C33.3078 9.73061 33.9157 11.0656 34.2577 12.4814C34.6295 13.9881 34.7629 15.5457 34.6525 17.0951H19.9644C20.0377 18.9311 20.4947 20.2644 21.3352 21.0951ZM27.6603 10.1917C26.9891 9.444 25.9691 9.07017 24.6002 9.07017C23.8323 9.04238 23.0689 9.2004 22.3726 9.53123C21.8243 9.80436 21.3401 10.1943 20.9526 10.6745C20.614 11.1013 20.3603 11.5912 20.2061 12.1169C20.0739 12.5614 19.9878 13.0187 19.9491 13.4814H29.0527C28.7936 12.0318 28.3294 10.9321 27.6603 10.1823V10.1917Z" fill="white"/>
<path d="M6.21509 5.24665V9.24353C7.51255 6.40553 9.51381 4.96627 13.1859 4.92578V10.3214C8.61111 10.2809 6.21509 11.6797 6.21509 15.6766V26.1501H0.523438V5.24665H6.21509Z" fill="white"/>
</g>
</svg>
