<svg width="71" height="70" viewBox="0 0 71 70" fill="none" xmlns="http://www.w3.org/2000/svg">
<mask id="mask0_2110_5697" style="mask-type:luminance" maskUnits="userSpaceOnUse" x="0" y="0" width="71" height="70">
<path d="M53.6973 0H17.6367C8.26458 0 0.666992 7.59759 0.666992 16.9697V53.0303C0.666992 62.4024 8.26458 70 17.6367 70H53.6973C63.0694 70 70.667 62.4024 70.667 53.0303V16.9697C70.667 7.59759 63.0694 0 53.6973 0Z" fill="white"/>
</mask>
<g mask="url(#mask0_2110_5697)">
<path d="M70.667 0H0.666992V70H70.667V0Z" fill="#100943"/>
<path d="M70.667 35C89.9971 35 105.667 19.33 105.667 1.42762e-05C105.667 -19.33 89.9971 -35 70.667 -35C51.337 -35 35.667 -19.33 35.667 1.42762e-05C35.667 19.33 51.337 35 70.667 35Z" fill="#ED143B"/>
<path d="M43.906 33.4019H23.2255V25.2184H43.906C45.114 25.2184 45.954 25.429 46.3755 25.7966C46.797 26.1644 47.0582 26.8463 47.0582 27.8426V30.781C47.0582 31.8306 46.797 32.5126 46.3755 32.8803C45.954 33.2479 45.114 33.4051 43.906 33.4051V33.4019ZM45.3248 17.5031H14.4551V52.5H23.2255V41.1141H39.3887L47.0582 52.5H56.8793L48.4234 41.0607C51.5409 40.5987 52.9408 39.6433 54.0952 38.0688C55.2497 36.4943 55.8288 33.977 55.8288 30.6175V27.9934C55.8288 26.0009 55.6177 24.4264 55.2497 23.2197C54.8817 22.0129 54.2527 20.9632 53.3592 20.0204C52.4154 19.1279 51.3648 18.4994 50.1033 18.0782C48.8418 17.7106 47.2658 17.5 45.3248 17.5V17.5031Z" fill="white"/>
</g>
</svg>
