<svg width="200" height="43" viewBox="0 0 200 43" fill="none" xmlns="http://www.w3.org/2000/svg">
<g clip-path="url(#clip0_1475_2225)">
<path d="M32.847 21.9548C32.6519 13.1009 25.4385 6 16.5654 6C7.56749 6 0.265625 13.3161 0.265625 22.3304H6.7819C6.7819 29.5383 12.6205 35.387 19.8144 35.387C26.8848 35.387 32.6519 29.7352 32.847 22.6878V21.9548ZM19.8144 28.8587C18.9588 28.8604 18.1112 28.6928 17.3203 28.3654C16.5293 28.038 15.8106 27.5573 15.2052 26.9508C14.5999 26.3444 14.1198 25.6241 13.7926 24.8312C13.4653 24.0384 13.2973 23.1885 13.2982 22.3304C13.2973 21.4723 13.4653 20.6225 13.7926 19.8297C14.1198 19.0368 14.5999 18.3165 15.2052 17.71C15.8106 17.1036 16.5293 16.6229 17.3203 16.2955C18.1112 15.9681 18.9588 15.8005 19.8144 15.8022C20.6701 15.8005 21.5177 15.9681 22.3086 16.2955C23.0996 16.6229 23.8183 17.1036 24.4237 17.71C25.029 18.3165 25.5091 19.0368 25.8363 19.8297C26.1636 20.6225 26.3316 21.4723 26.3307 22.3304C26.3316 23.1885 26.1636 24.0384 25.8363 24.8312C25.5091 25.6241 25.029 26.3444 24.4237 26.9508C23.8183 27.5573 23.0996 28.038 22.3086 28.3654C21.5177 28.6928 20.6701 28.8604 19.8144 28.8587ZM125.611 12.0809C119.934 12.0809 115.31 16.6787 115.31 22.3122C115.31 28.0539 119.827 32.5435 125.611 32.5435C131.378 32.5435 135.912 28.0539 135.912 22.3122C135.894 16.6774 131.288 12.0809 125.611 12.0809ZM125.611 28.2678C122.576 28.2678 120.363 25.5509 120.363 22.3304C120.363 19.1113 122.558 16.3917 125.611 16.3917C128.575 16.3917 130.806 19.1648 130.806 22.3304C130.806 25.5509 128.61 28.2678 125.611 28.2678ZM80.3534 12.5283L80.3365 14.8004C80.3365 14.8004 80.1036 14.5135 79.9072 14.2996C78.9448 13.1374 77.0692 12.0991 74.3378 12.0991C69.2848 12.0991 65.1604 16.6957 65.1604 22.3304C65.1604 27.9822 69.2848 32.5617 74.3378 32.5617C77.0874 32.5617 78.9435 31.5248 79.9072 30.3613C80.1036 30.1291 80.3365 29.8604 80.3365 29.8604L80.3547 32.1326H85.3531V12.5283H80.3534ZM80.6577 22.3304C80.6577 25.6748 78.604 28.2691 75.498 28.2691C72.3921 28.2691 70.2135 25.6748 70.2135 22.3304C70.2135 18.9861 72.3921 16.3917 75.498 16.3917C78.604 16.3748 80.6577 18.9678 80.6577 22.3304C80.6577 22.3122 80.6577 22.3122 80.6577 22.3304ZM173.833 12.5283L173.814 14.8004C173.814 14.8004 173.582 14.5135 173.385 14.2996C172.421 13.1374 170.547 12.0991 167.816 12.0991C162.763 12.0991 158.64 16.6957 158.64 22.3304C158.64 27.9822 162.763 32.5617 167.816 32.5617C170.565 32.5617 172.421 31.5248 173.385 30.3613C173.582 30.1291 173.814 29.8604 173.814 29.8604L173.833 32.1326H178.831V12.5283H173.833ZM174.136 22.3304C174.136 25.6748 172.082 28.2691 168.976 28.2691C165.87 28.2691 163.691 25.6748 163.691 22.3304C163.691 18.9861 165.87 16.3917 168.976 16.3917C172.082 16.3748 174.136 18.9678 174.136 22.3304C174.136 22.3122 174.136 22.3122 174.136 22.3304ZM57.6453 19.7191H62.6983C61.4653 14.9257 57.8234 12.0822 52.9148 12.0822C47.041 12.0822 42.6136 16.4817 42.6136 22.3122C42.6136 28.1426 47.041 32.5435 52.9148 32.5435C57.8234 32.5435 61.4653 29.7 62.6983 24.9065H57.6271C56.7166 26.9635 55.0921 28.2509 52.9148 28.2509C49.8257 28.2509 47.6653 25.6748 47.6653 22.3122C47.6653 18.9326 49.8257 16.3748 52.9148 16.3748C55.0921 16.3748 56.7348 17.6622 57.6453 19.7191ZM94.1195 12.5283H89.8156V32.1157H94.8322V20.0765L100.831 27.7683L106.793 20.0765V32.1157H111.81V12.527H107.507L100.796 21.1304L94.1182 12.527L94.1195 12.5283ZM157.408 12.5283H151.498L144.374 21.1317V12.5283H139.358V32.1157H144.374V23.6557L152.32 32.1157H158.728L149.266 22.1713L157.408 12.5283ZM188.133 32.1157H193.15V16.7504H199.059V12.5283H182.241V16.7504H188.133V32.1157Z" fill="white"/>
</g>
<defs>
<clipPath id="clip0_1475_2225">
<rect width="199" height="42" fill="white" transform="translate(0.132812 0.863281)"/>
</clipPath>
</defs>
</svg>
