<svg width="225" height="35" viewBox="0 0 225 35" fill="none" xmlns="http://www.w3.org/2000/svg">
<path d="M100.366 10.9382L105.038 7.60156H89.3926V27.5912H105.038V24.2517H93.8615V19.1497H103.414V15.813H93.8615V10.9382H100.366Z" fill="white"/>
<path d="M77.5824 15.3862H72.1623V10.9382H80.8333L85.5082 7.60156H67.6934V27.5912H77.0053C82.2225 27.5912 85.2356 25.2993 85.2356 21.3086C85.2356 17.4814 82.527 15.3862 77.5824 15.3862ZM76.8371 24.2517H72.1623V18.7229H76.8371C79.682 18.7229 81.0015 19.6402 81.0015 21.5053C81.0015 23.3705 79.5805 24.2517 76.8371 24.2517Z" fill="white"/>
<path d="M117.721 7.60156H109.221V27.5912H113.69V21.9294H117.755C123.173 21.9294 126.56 19.183 126.56 14.7655C126.56 10.348 123.173 7.60156 117.721 7.60156ZM117.619 18.5927H113.658V10.9382H117.619C120.499 10.9382 122.056 12.3128 122.056 14.7655C122.056 17.2181 120.499 18.5927 117.619 18.5927Z" fill="white"/>
<path d="M60.0374 23.2644C58.8542 23.888 57.5318 24.215 56.1775 24.215C52.1464 24.215 49.2348 21.4326 49.2348 17.6054C49.2348 13.7782 52.1464 10.9957 56.1775 10.9957C57.6333 10.9653 59.0572 11.4225 60.2404 12.2401L63.4594 9.95094L63.2564 9.75418C61.3946 8.14958 58.8861 7.33203 56.0412 7.33203C52.9613 7.33203 50.1483 8.34634 48.1183 10.1782C46.0854 12.0766 44.9341 14.726 45.0008 17.4751C44.966 20.2548 46.0854 22.9374 48.1183 24.8995C50.2498 26.8311 53.0947 27.912 56.0093 27.8455C59.2254 27.8455 62.0355 26.7646 63.9321 24.8025L61.0553 22.7407L60.0374 23.2644Z" fill="white"/>
<path d="M180.301 7.63482V27.6217H184.77V19.4435H194.287V27.6217H198.759V7.63482H194.287V15.8463H184.77V7.63482H180.301ZM172.613 27.6217H177.319L168.582 7.63482H164.043L155.137 27.6217H159.641L161.436 23.5977H170.919L172.613 27.6217ZM162.79 20.261L166.244 12.2463L169.495 20.261H162.79ZM208.785 19.5432H211.56L218.401 27.5912H224.158L215.014 17.2514L223.006 7.60156H217.894L211.255 16.1733H208.785V7.60156H204.313V27.5912H208.785V19.5432ZM140.37 15.4195V10.9715H152.054V7.63482H135.898V27.6217H145.213C150.428 27.6217 153.444 25.3326 153.444 21.3418C153.444 17.5146 150.735 15.4195 145.788 15.4195H140.37ZM140.37 24.285V18.7562H145.045C147.887 18.7562 149.21 19.6735 149.21 21.5386C149.21 23.4037 147.82 24.3183 145.045 24.3183H140.37V24.285Z" fill="white"/>
<path d="M31.0116 7.46875C31.8236 8.48306 32.5022 9.59436 33.0764 10.7722L17.4308 21.9268L10.8594 17.9361V13.1611L17.396 17.1185L31.0116 7.46875Z" fill="white"/>
<path d="M4.18604 17.6047C4.18604 17.3747 4.18604 17.1807 4.22084 16.9507L0.25941 16.7539C0.25941 17.0172 0.224609 17.3109 0.224609 17.5715C0.224609 22.1525 2.15602 26.3067 5.27064 29.3164L8.08076 26.6005C5.67665 24.3113 4.18604 21.1382 4.18604 17.6047Z" fill="white"/>
<path d="M17.3945 4.85065C17.6323 4.85065 17.8353 4.85065 18.0731 4.88391L18.2761 1.05669C18.0035 1.05669 17.699 1.02344 17.4293 1.02344C12.6878 1.02344 8.38705 2.88855 5.26953 5.89822L8.07965 8.61412C10.4519 6.29175 13.7695 4.85065 17.3945 4.85065Z" fill="white"/>
<path d="M17.4011 30.365C17.1633 30.365 16.9603 30.365 16.7225 30.3318L16.5195 34.159C16.7921 34.159 17.0966 34.1922 17.3663 34.1922C22.1079 34.1922 26.4115 32.3271 29.5261 29.3175L26.716 26.6016C24.3438 28.9572 21.0581 30.365 17.4011 30.365Z" fill="white"/>
<path d="M24.8544 7.07413L28.2069 4.68524C25.2604 2.39612 21.502 0.988281 17.4043 0.988281V4.81549C20.1825 4.84875 22.7548 5.66629 24.8544 7.07413Z" fill="white"/>
<path d="M34.6013 17.6053C34.6013 16.591 34.4998 15.61 34.3287 14.6289L30.637 17.2783C30.637 17.3753 30.637 17.5083 30.637 17.6053C30.637 21.3688 28.9433 24.7387 26.2695 27.0611L28.9433 29.9073C32.4002 26.8976 34.6013 22.4801 34.6013 17.6053Z" fill="white"/>
<path d="M17.402 30.3653C13.5072 30.3653 10.0185 28.7302 7.61439 26.1445L4.66797 28.7302C7.81739 32.1001 12.3559 34.1925 17.402 34.1925V30.3653Z" fill="white"/>
<path d="M8.55637 8.15476L5.87965 5.30859C2.39092 8.35152 0.224609 12.7358 0.224609 17.6106H4.18604C4.18604 13.8803 5.87965 10.4799 8.55637 8.15476Z" fill="white"/>
</svg>
