<svg width="61" height="61" viewBox="0 0 61 61" fill="none" xmlns="http://www.w3.org/2000/svg">
<path d="M32.8483 34.8763L46.7939 28.6629C46.998 28.5715 47.1114 28.3888 47.1114 28.1604L47.2474 13.0609C47.2474 12.6726 46.8392 12.3985 46.4764 12.5584L32.5535 18.7489C32.3495 18.8403 32.2361 19.023 32.2361 19.2515L32.0773 34.3738C32.0773 34.7621 32.4855 35.0362 32.8483 34.8763Z" fill="white"/>
<path d="M50.9209 1.43366C44.5717 -0.667932 38.0411 2.48445 33.1204 6.04801C28.7894 9.17755 24.4583 13.4949 20.4674 18.3377C20.6941 21.9013 21.0796 26.9725 24.2542 31.9752C25.9776 29.4624 27.6102 27.2923 29.7191 24.7796L29.7871 18.4519C29.7871 17.9265 30.1046 17.4468 30.6034 17.2184L47.5195 9.70295C48.4265 9.29177 49.4696 9.95422 49.4696 10.9593C49.4696 10.9593 49.4696 33.7798 49.447 41.478C21.1476 46.6863 18.9481 24.4826 18.4265 20.5764C18.0637 17.9037 17.8597 14.8884 17.8597 11.5076H6.56714C6.56714 20.2337 7.79163 27.4979 10.0819 33.3915C6.81657 37.3662 0.716797 52.2829 0.716797 60.7578H12.0093C12.0093 54.2246 16.6352 45.0873 16.9753 44.402C19.3336 46.8234 28.1544 56.0292 49.4243 52.7855V60.7578H60.7168V15.3909C60.6941 4.06064 50.8529 1.41081 50.9209 1.43366Z" fill="white"/>
</svg>
