<svg width="71" height="70" viewBox="0 0 71 70" fill="none" xmlns="http://www.w3.org/2000/svg">
<path d="M53.6973 0H17.6367C8.26458 0 0.666992 7.59759 0.666992 16.9697V53.0303C0.666992 62.4024 8.26458 70 17.6367 70H53.6973C63.0694 70 70.667 62.4024 70.667 53.0303V16.9697C70.667 7.59759 63.0694 0 53.6973 0Z" fill="black"/>
<path fill-rule="evenodd" clip-rule="evenodd" d="M60.4254 37.0346C60.4077 37.3133 60.3911 37.5909 60.3652 37.8662C60.3498 38.0304 60.3274 38.1922 60.3096 38.3528C60.2813 38.6009 60.2541 38.849 60.2199 39.0935C60.1951 39.2659 60.1655 39.436 60.1372 39.6061C60.0994 39.84 60.0628 40.0727 60.0191 40.3031C59.986 40.4779 59.9482 40.6492 59.9116 40.8228C59.8643 41.0473 59.8171 41.2705 59.7639 41.4926C59.7226 41.6662 59.6765 41.8387 59.6316 42.0112C59.4756 42.6157 59.2971 43.2142 59.0965 43.8055C58.7825 44.7218 58.4201 45.6208 58.0109 46.4987C57.9164 46.6995 57.8184 46.8968 57.7203 47.0929C57.6424 47.2465 57.5656 47.4 57.4853 47.5524C57.3813 47.7485 57.2738 47.9422 57.1652 48.1371C57.0825 48.2824 57.001 48.4289 56.9159 48.5742C56.8013 48.7703 56.682 48.9616 56.5615 49.153C56.4753 49.2912 56.3914 49.4294 56.3028 49.5652C56.1753 49.7613 56.0418 49.9539 55.9083 50.1464C55.8209 50.2728 55.737 50.3992 55.6473 50.5244C55.5008 50.7276 55.3484 50.926 55.1948 51.1257C55.1133 51.232 55.0342 51.3418 54.9515 51.447C54.7637 51.6844 54.5688 51.9159 54.3739 52.1463C54.3195 52.2077 54.2699 52.2738 54.2156 52.3353C53.9616 52.627 53.7029 52.9117 53.436 53.1905C53.3887 53.2413 53.3367 53.2897 53.2883 53.3405C53.071 53.5649 52.8501 53.7858 52.6244 54.002C52.5288 54.0942 52.4295 54.1792 52.3339 54.2702C52.1496 54.4403 51.9665 54.6104 51.7775 54.7745C51.6629 54.8738 51.546 54.9683 51.4302 55.0663C51.253 55.214 51.077 55.3616 50.8963 55.5046C50.7699 55.605 50.6411 55.6995 50.5136 55.7963L50.1131 56.0952C50.1509 56.0668 50.1923 56.042 50.2312 56.0149C50.1863 56.0479 50.1403 56.0751 50.0954 56.1082C50.0576 56.1353 50.021 56.1649 49.9832 56.1909C49.8473 56.2889 49.7103 56.3822 49.5733 56.4744C49.3406 56.6362 49.1043 56.7921 48.8657 56.9433L48.783 56.9941C48.8007 56.9835 48.8196 56.974 48.8362 56.9622L48.5893 57.1158C48.4145 57.2233 48.2396 57.3284 48.0625 57.4324L47.8298 57.5635C47.6939 57.6414 47.5557 57.717 47.4175 57.7915L47.3454 57.8293C47.2391 57.886 47.1352 57.9438 47.0277 57.9994C46.8836 58.0726 46.7395 58.1458 46.593 58.2179L46.4749 58.2734L46.0839 58.4589L46.0272 58.4848C45.9126 58.538 45.7956 58.5888 45.6799 58.6408C45.3418 58.7875 45.0007 58.9273 44.6569 59.0601L44.4786 59.1286C44.3262 59.1853 44.1714 59.2397 44.0167 59.2928C43.8903 59.3365 43.7639 59.3814 43.6363 59.4228L43.5855 59.4393C43.4485 59.4842 43.3115 59.5279 43.1733 59.5692L42.7787 59.6874C42.6098 59.7346 42.4421 59.7842 42.272 59.8291L42.1858 59.8504L41.9731 59.9059L42.0842 59.8752L41.8385 59.9342C41.8822 59.9224 41.9282 59.9177 41.9731 59.9059C41.8692 59.9319 41.764 59.9531 41.6601 59.9768L41.6447 59.9815C41.4758 60.0205 41.3081 60.0618 41.138 60.0973C40.962 60.1339 40.7848 60.1658 40.6076 60.1977C40.5037 60.2166 40.4009 60.2402 40.2969 60.2567C40.3454 60.2485 40.3926 60.2366 40.441 60.2272L40.1847 60.2733C40.2225 60.2662 40.2603 60.2626 40.2969 60.2567L40.1233 60.2839L39.9839 60.3099C39.7488 60.3453 39.5114 60.3737 39.274 60.4044C39.1204 60.4233 38.9668 60.4469 38.8109 60.4623L38.7755 60.467H38.753C38.6893 60.4741 38.6231 60.4764 38.5593 60.4823C38.4128 60.4965 38.2664 60.506 38.1199 60.5166C37.6226 60.5544 37.1217 60.578 36.6162 60.5827C36.5713 60.5827 36.5288 60.5898 36.485 60.5898H36.3043C36.2618 60.5898 36.2216 60.5851 36.1791 60.5827C35.6619 60.5771 35.145 60.5542 34.6293 60.5142C34.4887 60.5024 34.347 60.4942 34.2064 60.4812C34.1497 60.4753 34.0918 60.4741 34.034 60.467H34.0127C33.5917 60.4214 33.1722 60.3635 32.7547 60.2933C32.8149 60.3028 32.8763 60.3087 32.9366 60.317C32.7866 60.2933 32.633 60.2792 32.4842 60.2544L32.2715 60.2142C32.3282 60.2236 32.3838 60.2402 32.4405 60.2496C32.3389 60.2331 32.2396 60.2071 32.1381 60.1882L32.1026 60.1823C32.04 60.1705 31.9798 60.154 31.9183 60.1433C31.5181 60.0671 31.1198 59.9804 30.7241 59.8834L30.8375 59.9071L30.6509 59.8622L30.7241 59.8834C30.5528 59.8397 30.3863 59.7866 30.2162 59.7382L30.2433 59.7452C30.2256 59.7417 30.2091 59.7358 30.1914 59.7299L30.2162 59.7382C29.8724 59.6437 29.5287 59.5492 29.1908 59.4393L29.1483 59.4263C29.1022 59.4109 29.0574 59.3932 29.0113 59.3767L28.99 59.3696C28.7998 59.3046 28.6132 59.2314 28.4242 59.1617L28.6699 59.2515C28.54 59.2042 28.4112 59.1546 28.2825 59.1062L28.4242 59.1617C28.1348 59.0554 27.8454 58.9491 27.5619 58.8321L27.419 58.7731L27.3599 58.7459C27.1654 58.6622 26.9721 58.576 26.7799 58.4872C26.9063 58.5463 27.0339 58.5994 27.1603 58.6549C26.9725 58.5734 26.7858 58.486 26.6004 58.401C26.6606 58.4281 26.7197 58.46 26.7799 58.4872C26.5815 58.3963 26.3806 58.3088 26.1846 58.212L26.142 58.1919C26.116 58.1801 26.0889 58.1683 26.0629 58.1541C25.9696 58.1092 25.881 58.0537 25.7888 58.0064C25.5998 57.9084 25.4108 57.8127 25.2242 57.7111C25.3837 57.7974 25.5467 57.8789 25.7085 57.9627C25.477 57.8423 25.2478 57.717 25.0187 57.5895C25.0884 57.6284 25.1545 57.6733 25.2242 57.7111C25.0671 57.6249 24.9112 57.5375 24.7564 57.4477L24.6997 57.417C24.6419 57.3839 24.5851 57.3461 24.5284 57.3131C24.454 57.2705 24.3843 57.2209 24.3111 57.1748L24.2485 57.137L24.2804 57.1571C24.0246 57.0016 23.7718 56.8414 23.522 56.6764C23.5964 56.7248 23.6673 56.7803 23.7429 56.8299C23.6213 56.752 23.5031 56.6681 23.3838 56.5889L23.3732 56.5807L23.1913 56.459C23.0991 56.3952 23.0117 56.3267 22.9208 56.2617C22.7259 56.1247 22.5262 55.9948 22.3349 55.8507C22.4778 55.957 22.6302 56.0515 22.7755 56.1554C22.5203 55.9747 22.2628 55.7963 22.0148 55.6038L22.0667 55.6451C22.049 55.6333 22.0325 55.6168 22.0148 55.6038C21.7832 55.4219 21.5576 55.2329 21.332 55.0427L21.3214 55.0344L21.319 55.0332C21.2198 54.9482 21.1182 54.8679 21.019 54.7816H21.0178L20.9788 54.7462C20.7047 54.5052 20.4331 54.2619 20.1696 54.0091L20.1484 53.9902L20.1318 53.9737C20.035 53.8815 19.9452 53.7847 19.8507 53.6902C19.6641 53.5047 19.4774 53.3204 19.2967 53.1303L19.2743 53.1066C19.1998 53.0298 19.129 52.9472 19.0557 52.868C19.1148 52.933 19.1703 53.0003 19.2306 53.0641C19.1703 52.9991 19.1136 52.9306 19.0534 52.8656L18.9565 52.757C18.7923 52.5751 18.6269 52.3955 18.4675 52.2089L18.4651 52.2053C18.3741 52.099 18.2856 51.9915 18.197 51.884L18.1284 51.799C17.8876 51.5054 17.6529 51.2069 17.4244 50.9036L17.3559 50.8091C17.1338 50.5114 16.9188 50.209 16.7086 49.8995C16.6826 49.8617 16.659 49.8216 16.633 49.7826C16.5001 49.583 16.3698 49.3818 16.242 49.179C16.177 49.075 16.1097 48.9723 16.0459 48.8659C16.0164 48.8187 15.9904 48.7691 15.962 48.7207C15.8415 48.5198 15.7246 48.3167 15.61 48.1123C15.5958 48.0851 15.5793 48.058 15.564 48.032C15.5203 47.9552 15.4754 47.8784 15.4328 47.8005C15.4009 47.7426 15.3726 47.6823 15.3419 47.6233C15.2312 47.4137 15.1233 47.2026 15.0182 46.9901C14.9674 46.8897 14.9143 46.7929 14.8658 46.6924C14.8351 46.6287 14.808 46.5649 14.7784 46.5011C14.6733 46.2778 14.5729 46.0522 14.476 45.8254C14.437 45.738 14.3957 45.6506 14.3579 45.5632L14.2965 45.4096C14.1866 45.1474 14.0839 44.8816 13.9834 44.6135L13.9008 44.4008L13.8665 44.3004C13.7499 43.9779 13.64 43.653 13.5369 43.3259L13.4968 43.2042L13.485 43.1652C13.1924 42.2263 12.9534 41.2715 12.7691 40.3054L12.7597 40.2546C12.7408 40.1554 12.7278 40.0538 12.7101 39.9558C12.658 39.6696 12.6107 39.3825 12.5683 39.0947L12.5506 38.9836C12.5317 38.8419 12.5199 38.7001 12.5033 38.556C12.4704 38.2974 12.4416 38.0383 12.4171 37.7787C12.4147 37.7551 12.41 37.7291 12.4088 37.702C12.4053 37.6689 12.4065 37.6335 12.4041 37.598C12.339 36.854 12.3055 36.1076 12.3037 35.3607C12.3104 34.8545 12.3262 34.3485 12.351 33.8428C12.3651 33.5995 12.384 33.3585 12.4041 33.1175C12.3911 33.264 12.3734 33.4105 12.364 33.5581C12.3734 33.4081 12.3923 33.2628 12.4041 33.114C12.4195 32.9321 12.4348 32.7514 12.4537 32.5706C12.4986 32.1521 12.5525 31.7346 12.6156 31.3185C12.6522 31.0823 12.6935 30.8472 12.736 30.6145V30.6121C12.7679 30.4361 12.7998 30.2613 12.8353 30.0865C12.8825 29.8538 12.9345 29.6222 12.9888 29.3919C13.0278 29.2194 13.068 29.047 13.1117 28.8769V28.8745C13.1696 28.6477 13.231 28.4233 13.2948 28.2012L13.296 28.1953C13.3432 28.0264 13.3905 27.8563 13.4413 27.6897L13.4424 27.6862C13.5098 27.4653 13.5818 27.2467 13.6551 27.0282L13.6574 27.0223C13.7129 26.8569 13.7673 26.6916 13.8263 26.5274L13.8275 26.5238C13.9043 26.3076 13.9858 26.0962 14.0673 25.8836L14.0709 25.8753C14.1335 25.7135 14.1961 25.5505 14.261 25.391L14.2634 25.3875C14.352 25.1748 14.443 24.9646 14.5363 24.7555C14.606 24.5984 14.6745 24.4389 14.7477 24.283L14.7501 24.2794C14.8446 24.0763 14.9438 23.8766 15.0442 23.677L15.0501 23.6652C15.1269 23.5116 15.2025 23.3569 15.2828 23.2045L15.2852 23.1998C15.388 23.0049 15.4966 22.8112 15.6041 22.6186L15.6124 22.6044C15.6963 22.4556 15.7789 22.3056 15.8652 22.1579L15.8687 22.1532C15.9798 21.9642 16.0955 21.7787 16.2113 21.5933L16.2207 21.5767C16.3117 21.4326 16.4003 21.2873 16.4936 21.1444L16.4971 21.1385C16.6153 20.9566 16.7393 20.7794 16.8621 20.5999L16.8751 20.5821C16.972 20.4427 17.0665 20.3022 17.1657 20.1652L17.1705 20.1581C17.2957 19.9844 17.4268 19.8143 17.5579 19.6419L17.5721 19.623C17.6748 19.4883 17.7764 19.3536 17.8816 19.2213C17.8827 19.2187 17.8843 19.2163 17.8863 19.2142C18.0186 19.0489 18.1568 18.8835 18.2938 18.7217L18.3115 18.7016C18.4202 18.5717 18.5265 18.4417 18.6376 18.3141L18.6435 18.3082C18.7829 18.1488 18.9282 17.9928 19.0711 17.8381L19.0912 17.8168C19.2057 17.6928 19.318 17.5688 19.4349 17.4471C19.4369 17.4451 19.4385 17.4427 19.4396 17.44L19.4822 17.3951L19.442 17.4388C19.5684 17.3089 19.6995 17.1825 19.8283 17.0537C19.722 17.1601 19.6121 17.2616 19.507 17.3691C19.631 17.2416 19.7609 17.1187 19.8873 16.9935L19.9098 16.9722C20.0303 16.8541 20.1484 16.7336 20.2701 16.619L20.276 16.6143C20.4071 16.4891 20.5441 16.371 20.6788 16.2481C20.5654 16.3509 20.4496 16.4478 20.3386 16.5529C20.4709 16.4289 20.6079 16.3119 20.7414 16.1914C20.7498 16.1833 20.7584 16.1754 20.7674 16.1678C20.8914 16.058 21.0142 15.9434 21.1406 15.8359L21.1465 15.8312L21.208 15.7768L21.1477 15.83C21.2847 15.7118 21.4253 15.5996 21.5647 15.4862C21.4466 15.5831 21.3249 15.6764 21.208 15.7768C21.3462 15.6587 21.4903 15.5453 21.632 15.4307L21.6592 15.4071C21.7891 15.3031 21.9155 15.1968 22.0466 15.0952L22.0514 15.0917L22.1116 15.0444L22.0549 15.0893C22.1978 14.9783 22.3431 14.8732 22.4873 14.7657C22.3632 14.8602 22.2345 14.9488 22.1116 15.0444C22.2569 14.931 22.4081 14.8235 22.5569 14.7149L22.5877 14.6924C22.72 14.5944 22.8511 14.494 22.9857 14.3995L22.9905 14.3959L23.0483 14.3546L22.9964 14.3924C23.144 14.2884 23.2964 14.1916 23.4452 14.0912C23.3141 14.1786 23.1783 14.2636 23.0483 14.3546C23.2019 14.2483 23.359 14.1479 23.5149 14.0439L23.5492 14.0227C23.685 13.9317 23.8197 13.8384 23.9579 13.751L23.9626 13.7486C23.9807 13.7361 23.9992 13.7243 24.0182 13.7132L23.9709 13.7439C24.1245 13.647 24.2816 13.5549 24.4375 13.4628C24.2981 13.5454 24.1552 13.6269 24.0182 13.7132C24.1776 13.6128 24.343 13.5183 24.5048 13.4226L24.5426 13.399C24.682 13.3163 24.819 13.2312 24.9596 13.1509L24.9643 13.1485L25.0175 13.1178L24.975 13.1438C25.1356 13.0529 25.301 12.9678 25.4628 12.8804C25.3152 12.9607 25.164 13.034 25.0175 13.1178C25.1852 13.0233 25.3565 12.9371 25.5254 12.8461C25.5396 12.8398 25.5534 12.8327 25.5668 12.8249C25.7085 12.7505 25.8479 12.6725 25.992 12.6004L25.9956 12.5981L26.0464 12.5721L26.0097 12.5922C26.1787 12.5071 26.3511 12.4292 26.5224 12.3488C26.3641 12.4244 26.2035 12.4929 26.0464 12.5721C26.2212 12.4847 26.3995 12.4067 26.5767 12.324L26.6216 12.3016C26.7646 12.2343 26.9063 12.1646 27.0516 12.1008L27.0551 12.0984C27.0711 12.0918 27.0869 12.0847 27.1024 12.0771L27.0717 12.0925C27.2512 12.0122 27.4343 11.9425 27.6162 11.8681C27.445 11.9366 27.2725 12.0039 27.1024 12.0771C27.2843 11.998 27.4709 11.9271 27.6552 11.8515L27.706 11.8314C27.8501 11.7724 27.9919 11.7098 28.1383 11.6543H28.1407C28.1553 11.6472 28.1703 11.6409 28.1856 11.6354L28.1596 11.646C28.3545 11.5716 28.5541 11.5054 28.7514 11.4357C28.5624 11.5031 28.3722 11.5645 28.1856 11.6354C28.3758 11.5621 28.5695 11.5007 28.7609 11.4322L28.8199 11.4121C28.964 11.3613 29.1046 11.307 29.2487 11.2609H29.2511L29.2924 11.2467L29.2723 11.255C29.4779 11.1877 29.687 11.1298 29.8937 11.0695L29.8618 11.079L29.9445 11.0542L30.0165 11.0329C30.1394 10.9975 30.2599 10.9585 30.3839 10.9242L30.4217 10.9136L30.4099 10.9172C30.6225 10.8605 30.8387 10.8132 31.0537 10.7624L30.9781 10.7801C31.0867 10.7541 31.1942 10.7258 31.3041 10.7022L31.408 10.6762C31.4529 10.6667 31.4966 10.6537 31.5403 10.6455L31.5415 10.6443L31.5734 10.6384L31.5687 10.6396C31.7908 10.5923 32.0164 10.5545 32.242 10.5144L32.1215 10.5356C32.3223 10.499 32.5208 10.4553 32.7216 10.4246L32.7228 10.4234L32.7428 10.421H32.7476C32.9271 10.3915 33.1102 10.3726 33.2909 10.3478C33.1693 10.3632 33.0452 10.3785 32.9236 10.3962C33.1031 10.3702 33.285 10.3478 33.4658 10.3254L33.2909 10.3478C33.5 10.3194 33.7079 10.2864 33.9194 10.2651L33.9454 10.2616C34.1237 10.2427 34.3056 10.232 34.4852 10.219L34.3092 10.232C34.458 10.2202 34.6057 10.2072 34.7545 10.1966L34.4852 10.219C34.7014 10.2013 34.9163 10.1777 35.1337 10.1671L35.162 10.1659C35.3416 10.1553 35.5235 10.1553 35.7031 10.1505L35.6027 10.1529C35.8661 10.1446 36.1283 10.1328 36.3941 10.1328C49.6997 10.1328 60.4845 21.4255 60.4845 35.3607C60.4845 35.7836 60.4727 36.203 60.4538 36.6211C60.4467 36.7593 60.4337 36.8975 60.4254 37.0346ZM22.4176 43.4322C22.6007 44.2768 23.4074 44.8072 24.2154 44.6135C32.5999 42.6065 39.7205 43.4239 45.3763 47.0456C46.085 47.4969 47.01 47.2665 47.4423 46.52C47.6492 46.1587 47.7125 45.7327 47.6195 45.3269C47.5722 45.1261 47.4896 44.9371 47.3738 44.7717C47.2595 44.6072 47.1133 44.4674 46.9438 44.3607C40.5934 40.2948 32.7228 39.3498 23.5457 41.5481C23.3535 41.5915 23.1725 41.6744 23.0141 41.7914C22.8534 41.9096 22.7164 42.062 22.6125 42.2368C22.401 42.5967 22.3319 43.0227 22.4187 43.431L22.4176 43.4322ZM21.456 36.0494C21.7584 37.0889 22.8074 37.6736 23.802 37.3594C31.4612 34.926 41.3329 36.1309 47.8061 40.3007C48.6885 40.8677 49.8461 40.5783 50.3895 39.6546C50.6491 39.2031 50.7292 38.6705 50.614 38.1627C50.5575 37.9126 50.4536 37.6756 50.308 37.4645C50.1661 37.258 49.9841 37.082 49.7729 36.9471C42.3358 32.1643 31.46 30.8165 22.7093 33.5971C22.4754 33.668 22.2569 33.7897 22.0679 33.9515C21.876 34.1165 21.7183 34.3176 21.6037 34.5433C21.3681 35.0093 21.3155 35.5465 21.456 36.0494ZM52.9434 28.4398C44.0037 22.882 29.8582 22.3599 21.3485 25.0662C21.0674 25.1524 20.8052 25.2965 20.5784 25.4914C20.3504 25.6863 20.1614 25.9285 20.0208 26.2013C19.7389 26.7608 19.6769 27.4057 19.8472 28.0086C20.2074 29.256 21.4655 29.9589 22.6574 29.5797C30.0697 27.2255 42.878 27.6708 50.6447 32.4986C51.1585 32.8187 51.7692 32.912 52.3457 32.7584C52.9221 32.6037 53.4206 32.2139 53.7313 31.6717C54.0351 31.1259 54.1224 30.4858 53.9758 29.8786C53.9034 29.5799 53.7742 29.298 53.5954 29.0481C53.4212 28.8036 53.1994 28.5967 52.9434 28.4398ZM36.3303 10.1328H36.3941C36.1626 10.1328 35.9334 10.1446 35.7031 10.1505C35.9121 10.1446 36.12 10.1328 36.3303 10.1328Z" fill="#1ED760"/>
</svg>
