<svg width="71" height="70" viewBox="0 0 71 70" fill="none" xmlns="http://www.w3.org/2000/svg">
<g clip-path="url(#clip0_2110_5704)">
<path d="M53.3633 0H17.3027C7.9306 0 0.333008 7.59759 0.333008 16.9697V53.0303C0.333008 62.4024 7.9306 70 17.3027 70H53.3633C62.7354 70 70.333 62.4024 70.333 53.0303V16.9697C70.333 7.59759 62.7354 0 53.3633 0Z" fill="url(#paint0_linear_2110_5704)"/>
<path fill-rule="evenodd" clip-rule="evenodd" d="M16.9958 33.7793C27.199 29.3339 34.0028 26.4033 37.407 24.9873C47.1269 20.9445 49.1466 20.2422 50.463 20.219C50.7525 20.2139 51.3999 20.2857 51.8193 20.6259C52.1733 20.9132 52.2708 21.3014 52.3174 21.5738C52.364 21.8462 52.4221 22.4667 52.3759 22.9516C51.8492 28.4859 49.5701 41.9163 48.4106 48.1148C47.92 50.7377 46.9539 51.6171 46.0187 51.7031C43.9861 51.8902 42.4427 50.3599 40.4742 49.0695C37.3937 47.0502 35.6534 45.7932 32.6633 43.8228C29.2077 41.5456 31.4478 40.294 33.4172 38.2485C33.9326 37.7132 42.8879 29.5677 43.0612 28.8288C43.0829 28.7364 43.103 28.3919 42.8983 28.21C42.6937 28.0281 42.3916 28.0903 42.1737 28.1398C41.8647 28.2099 36.9437 31.4625 27.4105 37.8977C26.0137 38.8569 24.7484 39.3242 23.6149 39.2997C22.3652 39.2727 19.9613 38.5931 18.1743 38.0122C15.9824 37.2997 14.2403 36.923 14.392 35.713C14.471 35.0827 15.339 34.4382 16.9958 33.7793Z" fill="white"/>
</g>
<defs>
<linearGradient id="paint0_linear_2110_5704" x1="3500.33" y1="0" x2="3500.33" y2="6948.08" gradientUnits="userSpaceOnUse">
<stop stop-color="#2AABEE"/>
<stop offset="1" stop-color="#229ED9"/>
</linearGradient>
<clipPath id="clip0_2110_5704">
<rect width="70" height="70" fill="white" transform="translate(0.333008)"/>
</clipPath>
</defs>
</svg>
