<svg width="71" height="70" viewBox="0 0 71 70" fill="none" xmlns="http://www.w3.org/2000/svg">
<g clip-path="url(#clip0_2110_5712)">
<path d="M53.6973 0H17.6367C8.26458 0 0.666992 7.59759 0.666992 16.9697V53.0303C0.666992 62.4024 8.26458 70 17.6367 70H53.6973C63.0694 70 70.667 62.4024 70.667 53.0303V16.9697C70.667 7.59759 63.0694 0 53.6973 0Z" fill="black"/>
<path d="M39.016 32.2429L52.1224 17.0078H49.0166L37.6364 30.2362L28.547 17.0078H18.0635L31.8084 37.0115L18.0635 52.9878H21.1694L33.1873 39.0182L42.7863 52.9878H53.2698L39.0153 32.2429H39.016ZM34.762 37.1877L33.3693 35.1958L22.2886 19.3459H27.0591L36.0015 32.1373L37.3941 34.1292L49.0181 50.756H44.2475L34.762 37.1885V37.1877Z" fill="white"/>
</g>
<defs>
<clipPath id="clip0_2110_5712">
<rect width="70" height="70" fill="white" transform="translate(0.666992)"/>
</clipPath>
</defs>
</svg>
