<svg width="71" height="70" viewBox="0 0 71 70" fill="none" xmlns="http://www.w3.org/2000/svg">
<path d="M53.0303 0H16.9697C7.59759 0 0 7.59759 0 16.9697V53.0303C0 62.4024 7.59759 70 16.9697 70H53.0303C62.4024 70 70 62.4024 70 53.0303V16.9697C70 7.59759 62.4024 0 53.0303 0Z" fill="#17D4FF"/>
<path d="M16.3057 29.5888L14.4912 27.1982L19.9096 22.3266C23.9621 18.6937 25.6102 18.5998 26.6592 18.5998C30.7669 18.5998 31.3312 25.0539 31.8997 28.4409C32.7272 33.3718 33.9555 39.7474 35.837 39.7474C37.7185 39.7474 42.1849 32.1908 42.1849 29.3972C42.1849 26.2731 39.4261 26.2156 36.6673 27.2613C39.2704 19.0738 43.5198 18.3026 46.9461 18.1172C52.446 18.1172 53.02 22.2109 53.198 24.7501C53.198 25.551 52.9622 27.8471 52.0188 30.6237C50.8397 34.0945 45.2285 41.7537 42.8559 44.4682C40.4834 47.1827 36.0376 51.8423 31.9551 51.8423C26.6971 51.8423 24.9615 41.0958 23.5059 35.7226C20.7442 25.8592 19.8565 26.9639 16.3057 29.5888Z" fill="#0A0E11"/>
</svg>
