<svg width="256" height="43" viewBox="0 0 256 43" fill="none" xmlns="http://www.w3.org/2000/svg">
<mask id="mask0_1455_676" style="mask-type:luminance" maskUnits="userSpaceOnUse" x="0" y="0" width="256" height="43">
<path d="M255.68 0.363281H0.703125V42.8132H255.68V0.363281Z" fill="white"/>
</mask>
<g mask="url(#mask0_1455_676)">
<path d="M77.9098 26.7002C77.9098 29.9228 74.7702 32.2565 70.3512 32.2565H60.002V12.2539H70.0025C74.3051 12.2539 77.3284 14.4764 77.3284 17.5879C77.3284 19.6993 76.1654 21.0328 74.4215 21.8107C76.2818 22.4774 77.9098 24.2555 77.9098 26.7002ZM64.5369 15.9211V20.2549H69.8861C71.5141 20.2549 72.5607 19.3659 72.5607 18.1436C72.5607 16.9212 71.3977 15.9211 69.8861 15.9211H64.5369ZM70.3512 28.5893C72.0956 28.5893 73.3749 27.5892 73.3749 26.1446C73.3749 24.7 72.212 23.6998 70.3512 23.6998H64.5369V28.5893H70.3512Z" fill="white"/>
<path d="M95.0184 32.1453L87.8089 24.2555H86.6459V32.1453H81.9941V12.2539H86.6459V19.9215H87.8089L94.7856 12.2539H100.251L91.5296 21.8107L101.065 32.1453H95.0184Z" fill="white"/>
<path d="M101.064 22.2487C101.064 16.248 105.716 11.9141 112.227 11.9141C118.74 11.9141 123.391 16.248 123.391 22.2487C123.391 28.2495 118.74 32.5834 112.227 32.5834C105.716 32.5834 101.064 28.2495 101.064 22.2487ZM118.507 22.2487C118.507 18.4705 115.949 15.9146 112.227 15.9146C108.506 15.9146 105.948 18.4705 105.948 22.2487C105.948 26.027 108.506 28.5829 112.227 28.5829C115.949 28.5829 118.507 26.027 118.507 22.2487Z" fill="white"/>
<path d="M141.179 12.2539H145.83V32.1453H141.179V24.1443H131.876V32.1453H127.225V12.2539H131.876V20.1438H141.179V12.2539Z" fill="white"/>
<path d="M155.833 32.1453V16.2544H148.623V12.2539H167.578V16.2544H160.368V32.1453H155.833Z" fill="white"/>
<path d="M187.578 21.0264V32.1389H184.206L183.276 29.0274C182.229 30.6943 180.019 32.5834 176.647 32.5834C172.461 32.5834 169.438 29.9164 169.438 26.2493C169.438 22.5821 172.461 20.0262 178.624 20.0262H183.159C182.927 17.4703 181.531 15.6924 178.973 15.6924C176.88 15.6924 175.485 16.8036 174.787 18.026L170.6 17.3592C171.647 13.9143 175.252 11.9141 179.206 11.9141C184.322 11.9141 187.578 15.2478 187.578 21.0264ZM183.043 23.4711H178.74C175.252 23.4711 174.089 24.5824 174.089 26.027C174.089 27.6939 175.485 28.8051 177.81 28.8051C180.834 28.8051 183.043 26.6938 183.043 23.4711Z" fill="white"/>
<path d="M205.491 32.1453L198.281 24.2555H197.118V32.1453H192.467V12.2539H197.118V19.9215H198.281L205.258 12.2539H210.723L202.002 21.8107L211.538 32.1453H205.491Z" fill="white"/>
<path d="M219.901 32.1453V16.2544H212.691V12.2539H231.646V16.2544H224.436V32.1453H219.901Z" fill="white"/>
<path d="M254.899 23.4711H238.154C238.619 26.5826 240.945 28.5829 244.433 28.5829C246.875 28.5829 248.736 27.5827 249.782 26.1381L254.085 26.8049C252.573 30.5831 248.503 32.5834 244.084 32.5834C237.805 32.5834 233.27 28.2495 233.27 22.2487C233.27 16.248 237.805 11.9141 244.084 11.9141C250.364 11.9141 254.899 16.248 254.899 22.0265C255.015 22.5821 254.899 23.0266 254.899 23.4711ZM238.502 20.0262H250.015C249.201 17.5815 247.108 15.8034 244.201 15.8034C241.41 15.6924 239.2 17.4703 238.502 20.0262Z" fill="white"/>
<path fill-rule="evenodd" clip-rule="evenodd" d="M3.82567 3.34727C0.703125 6.33127 0.703125 11.1339 0.703125 20.7392V22.4372C0.703125 32.0425 0.703125 36.8452 3.82567 39.8292C6.94823 42.8132 11.9739 42.8132 22.0252 42.8132H23.802C33.8534 42.8132 38.879 42.8132 42.0016 39.8292C45.1241 36.8452 45.1241 32.0425 45.1241 22.4372V20.7392C45.1241 11.1339 45.1241 6.33127 42.0016 3.34727C38.879 0.363281 33.8534 0.363281 23.802 0.363281H22.0252C11.9739 0.363281 6.94823 0.363281 3.82567 3.34727ZM8.19926 13.2753C8.43984 24.3122 14.2145 30.945 24.3388 30.945H24.9127V24.6306C28.633 24.9843 31.4461 27.5844 32.5751 30.945H37.8318C36.3881 25.9218 32.5936 23.1448 30.2245 22.0836C32.5936 20.7747 35.9252 17.591 36.7211 13.2753H31.9457C30.9092 16.7774 27.8371 19.9611 24.9127 20.2617V13.2753H20.1373V25.515C17.1759 24.8075 13.4372 21.3761 13.2706 13.2753H8.19926Z" fill="white"/>
</g>
</svg>
