<svg width="71" height="70" viewBox="0 0 71 70" fill="none" xmlns="http://www.w3.org/2000/svg">
<g clip-path="url(#clip0_2208_5496)">
<path d="M53.6963 0H17.6357C8.26361 0 0.666016 7.59759 0.666016 16.9697V53.0303C0.666016 62.4024 8.26361 70 17.6357 70H53.6963C63.0684 70 70.666 62.4024 70.666 53.0303V16.9697C70.666 7.59759 63.0684 0 53.6963 0Z" fill="#0077FF"/>
<path d="M37.5085 47.8659C23.4141 47.8659 15.375 38.2034 15.04 22.125H22.1001C22.332 33.9261 27.5367 38.9249 31.6594 39.9555V22.125H38.3075V32.3028C42.3786 31.8648 46.6554 27.2268 48.0983 22.125H54.7462C53.6383 28.4121 49.0003 33.0501 45.7021 34.9568C49.0003 36.5028 54.2827 40.5482 56.2925 47.8659H48.9745C47.4027 42.9702 43.4866 39.1825 38.3075 38.6672V47.8659H37.5085Z" fill="white"/>
</g>
<defs>
<clipPath id="clip0_2208_5496">
<rect width="70" height="70" fill="white" transform="translate(0.666016)"/>
</clipPath>
</defs>
</svg>
