<svg width="71" height="70" viewBox="0 0 71 70" fill="none" xmlns="http://www.w3.org/2000/svg">
<g clip-path="url(#clip0_2110_5715)">
<path d="M53.3633 0H17.3027C7.9306 0 0.333008 7.59759 0.333008 16.9697V53.0303C0.333008 62.4024 7.9306 70 17.3027 70H53.3633C62.7354 70 70.333 62.4024 70.333 53.0303V16.9697C70.333 7.59759 62.7354 0 53.3633 0Z" fill="white"/>
<path d="M30.8298 26.6378C30.8298 26.6378 30.2294 25.4172 30.0248 25.0114C28.6602 22.3084 28.6897 22.1644 27.3104 21.9812C26.9242 21.9304 26.7246 21.8814 26.7246 21.6899V20.8342L26.8408 20.7507C29.3327 20.7475 34.8778 20.7475 34.8778 20.7475L35.0905 20.8178V21.6703C35.0905 21.865 34.9515 21.9648 34.6684 21.9648L34.0859 22.0482C32.6133 22.1628 32.8538 22.7649 33.8323 24.7136L43.121 43.7181L43.4384 43.8048L51.6849 24.2342C51.9713 23.4456 51.9271 22.886 51.5589 22.5571C51.1891 22.238 50.929 22.0466 49.9734 22.0073L49.1995 21.9697C49.1046 21.9697 49.0146 21.9353 48.9279 21.8699C48.8428 21.8093 48.7987 21.7292 48.7987 21.6326V20.8178L48.9165 20.7344C51.2399 20.7344 58.233 20.7344 58.233 20.7344L58.3279 20.8178V21.6326C58.3279 21.8535 58.2019 21.9648 57.9532 21.9648C56.7326 22.0188 55.8278 22.2839 55.242 22.7567C54.6546 23.2329 54.1965 23.8873 53.8676 24.7414C53.8676 24.7414 46.2838 42.0983 43.6888 47.8692C42.6956 49.7606 41.7188 49.5872 40.8598 47.8152C39.0452 44.0781 33.9354 32.7408 33.9354 32.7408L30.8298 26.6378Z" fill="black"/>
<path d="M45.713 20.7416C45.713 20.7416 40.4722 20.7253 38.139 20.7416L38.0228 20.8251V21.6366C38.0228 21.7365 38.0654 21.815 38.1505 21.8755C38.2372 21.9394 38.3255 21.9721 38.4204 21.9721L38.7951 22.013C39.749 22.0506 40.1875 22.3026 40.3184 22.458C40.5459 22.7362 40.6588 23.0372 40.1074 24.2399L30.3228 43.7565L30.066 43.6894C30.066 43.6894 23.0581 28.9129 21.0292 23.9682C20.8181 23.4577 20.7232 23.0765 20.7232 22.8425C20.7232 22.3402 21.1765 22.0686 22.0829 22.031L23.1399 21.9868C23.4197 21.9868 23.562 21.8788 23.562 21.6546V20.8431L23.4671 20.7596C23.4671 20.7596 15.0734 20.7498 13.339 20.7596L13.2441 20.8431V21.6956C13.2441 21.8494 13.4388 21.9442 13.8299 21.9868C14.8951 22.0441 15.5954 22.2142 15.9324 22.4973C16.2678 22.7836 16.6229 23.5068 17.0941 24.6342C19.6417 30.7536 25.0543 41.6736 27.6902 47.8928C28.4494 49.5912 29.4033 49.8546 30.5617 47.8405C32.5677 44.1214 38.0065 32.7579 38.0065 32.7579L42.29 24.7471C42.7891 23.8995 43.2701 23.1452 43.5139 22.7951C43.9606 22.1521 44.211 22.031 45.4316 21.9737C45.6803 21.9737 45.8063 21.8624 45.8063 21.6383V20.8267L45.713 20.7416Z" fill="black"/>
</g>
<defs>
<clipPath id="clip0_2110_5715">
<rect width="70" height="70" fill="white" transform="translate(0.333008)"/>
</clipPath>
</defs>
</svg>
