<svg width="116" height="33" viewBox="0 0 116 33" fill="none" xmlns="http://www.w3.org/2000/svg">
<path d="M14.7113 4.1124H12.4906C8.42096 4.1124 6.28285 6.11789 6.28285 9.08723C6.28285 12.4573 7.76335 14.0215 10.8052 16.0287L13.3135 17.674L6.078 28.2256H0.691406L7.18837 18.7968C3.44753 16.1893 1.35074 13.6613 1.35074 9.36793C1.35074 3.99234 5.17421 0.339844 12.4527 0.339844H19.6882V28.2239H14.7131V4.11071L14.7113 4.1124Z" fill="white"/>
<path d="M60.0214 8.0439H45.7535V9.76869C45.7535 14.7029 45.4247 21.083 43.6981 24.4531H42.1762V32.8386H46.6986V28.2239H57.6767V32.8386H62.1991V24.4531H60.0196V8.0439H60.0214ZM55.1288 24.4531H48.2222C49.5787 21.4042 49.9488 15.9069 49.9488 12.4167V11.8148H55.1288V24.4531Z" fill="white"/>
<path d="M35.2282 16.0287H28.6917V8.0439H23.7992V28.2256H28.6917V19.7995H35.2282V28.2256H40.1208V8.0439H35.2282V16.0287Z" fill="white"/>
<path d="M110.962 11.414C112.854 11.414 114.703 12.0566 115.691 12.6586V8.60699C114.664 8.04559 112.854 7.64483 110.429 7.64483C104.18 7.64483 100.931 12.0177 100.931 18.1559C100.931 24.8961 104.097 28.6281 110.634 28.6281C112.896 28.6281 114.498 28.2273 115.691 27.3835V23.4909C114.459 24.333 112.978 24.8555 110.923 24.8555C107.428 24.8555 105.989 22.2075 105.989 18.0341C105.989 13.8608 107.757 11.414 110.964 11.414H110.962Z" fill="white"/>
<path d="M100.274 8.0439H95.3398L88.4314 17.3527V8.0439H83.5388V28.2256H88.4314V18.3148L95.6686 28.2256H101.219L93.3652 17.3527L100.274 8.0439Z" fill="white"/>
<path d="M72.1907 7.64314C66.2291 7.64314 63.3921 12.0971 63.3921 18.1948C63.3921 25.2157 66.928 28.6264 73.1771 28.6264C76.3016 28.6264 78.605 27.8232 80.0442 26.861V22.9701C78.5224 23.9728 75.9746 24.8555 73.5886 24.8555C70.0113 24.8555 68.6547 23.2102 68.4499 19.8401H80.2508V17.3121C80.2508 10.2912 77.0849 7.64314 72.1924 7.64314H72.1907ZM75.2739 16.3094H68.4481C68.5721 13.0999 69.7634 11.414 72.1081 11.414C74.4527 11.414 75.2739 13.3806 75.2739 15.9069V16.3094Z" fill="white"/>
</svg>
