<svg width="70" height="70" viewBox="0 0 70 70" fill="none" xmlns="http://www.w3.org/2000/svg">
<g clip-path="url(#clip0_2110_5718)">
<path d="M53.0303 0H16.9697C7.59759 0 0 7.59759 0 16.9697V53.0303C0 62.4024 7.59759 70 16.9697 70H53.0303C62.4024 70 70 62.4024 70 53.0303V16.9697C70 7.59759 62.4024 0 53.0303 0Z" fill="black"/>
<path d="M61.3171 28.6234L61.1074 27.5821L52.2595 26.0359L57.4029 19.0805L56.803 18.4269L49.2428 22.0534L50.1988 12.4202L49.4208 11.9764L44.8188 19.7634L39.6486 8.17188H38.7512L39.9754 19.378L26.9743 8.97423L25.8671 9.30103L35.8807 21.8778L16.0633 15.2785L15.1658 16.2881L32.8615 26.3651L8.44209 28.3893L8.17383 29.9013L33.5493 32.6669L12.388 50.1773L13.2831 51.3942L38.4805 37.6908L33.4907 61.8249H35.015L44.6676 39.115L50.5573 56.8912L51.6035 56.0864L49.1818 38.0151L58.3589 48.4189L58.9564 47.4678L51.9327 34.5667L61.7366 38.1932L61.8244 37.0957L53.0375 30.6135L61.3171 28.6234Z" fill="#FFBC0D"/>
</g>
<defs>
<clipPath id="clip0_2110_5718">
<rect width="70" height="70" fill="white"/>
</clipPath>
</defs>
</svg>
