<svg width="70" height="70" viewBox="0 0 70 70" fill="none" xmlns="http://www.w3.org/2000/svg">
<g clip-path="url(#clip0_2110_5707)">
<mask id="mask0_2110_5707" style="mask-type:alpha" maskUnits="userSpaceOnUse" x="0" y="0" width="70" height="70">
<path d="M53.0303 0H16.9697C7.59759 0 0 7.59759 0 16.9697V53.0303C0 62.4024 7.59759 70 16.9697 70H53.0303C62.4024 70 70 62.4024 70 53.0303V16.9697C70 7.59759 62.4024 0 53.0303 0Z" fill="black"/>
</mask>
<g mask="url(#mask0_2110_5707)">
<rect width="70" height="73.1111" transform="translate(0.0322266 -1.55469)" fill="white"/>
<path d="M56.8025 24.0452C56.2781 22.0859 54.7383 20.5463 52.7791 20.0218C49.2316 19.0703 35 19.0703 35 19.0703C35 19.0703 20.7685 19.0703 17.2209 20.0218C15.2617 20.5463 13.7221 22.0859 13.1976 24.0452C12.2461 27.5927 12.2461 34.9988 12.2461 34.9988C12.2461 34.9988 12.2461 42.405 13.1976 45.9526C13.7221 47.9118 15.2617 49.4514 17.2209 49.9758C20.7685 50.9273 35 50.9273 35 50.9273C35 50.9273 49.2316 50.9273 52.7791 49.9758C54.7383 49.4514 56.2781 47.9118 56.8025 45.9526C57.754 42.405 57.754 34.9988 57.754 34.9988C57.754 34.9988 57.7502 27.5927 56.8025 24.0452Z" fill="#FF0000"/>
<path d="M30.5596 41.6537L42.0871 34.9988L30.5596 28.3438V41.6537Z" fill="white"/>
</g>
</g>
<defs>
<clipPath id="clip0_2110_5707">
<rect width="70" height="70" fill="white"/>
</clipPath>
</defs>
</svg>
